<?xml version="1.0" standalone="no"?>
<svg width="1005" height="1380" xmlns="http://www.w3.org/2000/svg" font-family="Arial, Helvetica, sans-serif">
  <style>
    .layerRectangle {
      stroke: black;
      stroke-dasharray: 5,5;
      fill: url('#layers')
    }
    .layerText {
      fill: purple;
      font-size: 150%;
      filter: url(#outlineWhite);
    }
    .nodeFolder {
      fill: #aaaaaa;
      opacity: 0.3;
      stroke: whitesmoke;
    }
    .nodeFile {
      fill: #ffffff;
      opacity: 0.9;
      stroke: gray;
    }
    .folderName {
      font-size: 180%;
      fill : white;
      font-weight: bolder;
      text-anchor: start;
      letter-spacing : 1px;
      dominant-baseline: hanging;
      filter: url(#shadow);
    }
    .nodeName {
      fill : black;
      font-weight: bold;
      text-anchor: middle;
      dominant-baseline: central;
      filter: url(#outlineWhite);
    }
    .line {
      fill : none;
      stroke-width: 3;
      opacity: 0.5;
    }
    .line:hover {
      stroke-width: 6;
      opacity: 1;
    }
</style>
  <defs id='idSvgDef'>
    <linearGradient id="layers" gradientTransform="rotate(90)">
      <stop offset="0%" stop-color="#691872" stop-opacity="0.1"/>
      <stop offset="100%" stop-color="#691872" stop-opacity="0.3" />
    </linearGradient>
    <filter id="shadow">
      <feGaussianBlur in="SourceAlpha" stdDeviation="2"/>
      <feOffset dx="1" dy="1" result="offsetblur"/>
      <feFlood flood-color="black"/>
      <feComposite in2="offsetblur" operator="in"/>
      <feMerge>
        <feMergeNode/>
        <feMergeNode in="SourceGraphic"/>
      </feMerge>
    </filter>
    <filter id="outlineWhite">
      <feMorphology in="SourceAlpha" result="DILATED" operator="dilate" radius="2"/>
      <feFlood flood-color="white" flood-opacity="0.5" result="WHITE"/>
      <feComposite in="WHITE" in2="DILATED" operator="in" result="OUTLINE"/>
      <feMerge>
        <feMergeNode in="OUTLINE" />
        <feMergeNode in="SourceGraphic" />
      </feMerge>
    </filter>
    <filter id="outlineBlack">
      <feMorphology in="SourceAlpha" result="DILATED" operator="dilate" radius="2"/>
      <feFlood flood-color="black" flood-opacity="0.5" result="BLACK"/>
      <feComposite in="BLACK" in2="DILATED" operator="in" result="OUTLINE"/>
      <feMerge>
        <feMergeNode in="OUTLINE"/>
        <feMergeNode in="SourceGraphic"/>
      </feMerge>
    </filter>
    <marker id='lineEnd' viewBox= '0 -5 30 10' refX='12' orient='auto'>
      <path d='M0,-16L32,0L0,16' fill='#3058FF' opacity="0.67"/>
    </marker>
    <marker id='lineStart' viewBox= '0 -4 8 8' refX='4' orient='auto'>
      <circle cx='4' r='4' fill='#377E22'/>
    </marker>
  </defs>
  <rect width="100%" height="100%" fill="white"/>
  <g id='Layers_Rects'>
    <g id='Layer:0 of glad'>
      <rect x="17.5" y="35" width="970" height="150" rx="2" ry="2" class="layerRectangle" id='glad 0'/>
    </g>
    <g id='Layer:0 of test'>
      <rect x="185" y="70" width="300" height="80" rx="2" ry="2" class="layerRectangle" id='test 0'/>
    </g>
    <g id='Layer:0 of cli'>
      <rect x="520" y="70" width="300" height="80" rx="2" ry="2" class="layerRectangle" id='cli 0'/>
    </g>
    <g id='Layer:1 of glad'>
      <rect x="17.5" y="185" width="970" height="80" rx="2" ry="2" class="layerRectangle" id='glad 1'/>
    </g>
    <g id='Layer:2 of glad'>
      <rect x="17.5" y="265" width="970" height="1080" rx="2" ry="2" class="layerRectangle" id='glad 2'/>
    </g>
    <g id='Layer:0 of lib'>
      <rect x="35" y="300" width="935" height="80" rx="2" ry="2" class="layerRectangle" id='lib 0'/>
    </g>
    <g id='Layer:1 of lib'>
      <rect x="35" y="380" width="935" height="230" rx="2" ry="2" class="layerRectangle" id='lib 1'/>
    </g>
    <g id='Layer:0 of render'>
      <rect x="52.5" y="415" width="900" height="80" rx="2" ry="2" class="layerRectangle" id='render 0'/>
    </g>
    <g id='Layer:1 of render'>
      <rect x="52.5" y="495" width="900" height="80" rx="2" ry="2" class="layerRectangle" id='render 1'/>
    </g>
    <g id='Layer:2 of lib'>
      <rect x="35" y="610" width="935" height="470" rx="2" ry="2" class="layerRectangle" id='lib 2'/>
    </g>
    <g id='Layer:0 of models'>
      <rect x="202.5" y="645" width="600" height="80" rx="2" ry="2" class="layerRectangle" id='models 0'/>
    </g>
    <g id='Layer:1 of models'>
      <rect x="202.5" y="725" width="600" height="80" rx="2" ry="2" class="layerRectangle" id='models 1'/>
    </g>
    <g id='Layer:2 of models'>
      <rect x="202.5" y="805" width="600" height="80" rx="2" ry="2" class="layerRectangle" id='models 2'/>
    </g>
    <g id='Layer:3 of models'>
      <rect x="202.5" y="885" width="600" height="80" rx="2" ry="2" class="layerRectangle" id='models 3'/>
    </g>
    <g id='Layer:4 of models'>
      <rect x="202.5" y="965" width="600" height="80" rx="2" ry="2" class="layerRectangle" id='models 4'/>
    </g>
    <g id='Layer:3 of lib'>
      <rect x="35" y="1080" width="935" height="230" rx="2" ry="2" class="layerRectangle" id='lib 3'/>
    </g>
    <g id='Layer:0 of util'>
      <rect x="352.5" y="1115" width="300" height="80" rx="2" ry="2" class="layerRectangle" id='util 0'/>
    </g>
    <g id='Layer:1 of util'>
      <rect x="352.5" y="1195" width="300" height="80" rx="2" ry="2" class="layerRectangle" id='util 1'/>
    </g>
  </g>
  <g id='Node_glad'>
    <rect x="4" y="4" width="997" height="1372" rx="2" ry="2" class="nodeFolder"/>
    <g id='Node_lib'>
      <rect x="21.5" y="269" width="962" height="1072" rx="2" ry="2" class="nodeFolder"/>
      <g id='Node_glad.js'>
        <rect x="356.5" y="304" width="292" height="72" rx="8" ry="8" class="nodeFile"/>
      </g>
      <g id='Node_render'>
        <rect x="39" y="384" width="927" height="222" rx="2" ry="2" class="nodeFolder"/>
        <g id='Node_renderAsLayers.js'>
          <rect x="56.5" y="419" width="292" height="72" rx="8" ry="8" class="nodeFile"/>
        </g>
        <g id='Node_renderAsPoster.js'>
          <rect x="356.5" y="419" width="292" height="72" rx="8" ry="8" class="nodeFile"/>
        </g>
        <g id='Node_renderAsGrid.js'>
          <rect x="656.5" y="419" width="292" height="72" rx="8" ry="8" class="nodeFile"/>
        </g>
        <g id='Node_renderBase.js'>
          <rect x="356.5" y="499" width="292" height="72" rx="8" ry="8" class="nodeFile"/>
        </g>
      </g>
      <g id='Node_models'>
        <rect x="189" y="614" width="627" height="462" rx="2" ry="2" class="nodeFolder"/>
        <g id='Node_graph.js'>
          <rect x="206.5" y="649" width="292" height="72" rx="8" ry="8" class="nodeFile"/>
        </g>
        <g id='Node_layers.js'>
          <rect x="506.5" y="649" width="292" height="72" rx="8" ry="8" class="nodeFile"/>
        </g>
        <g id='Node_layer.js'>
          <rect x="206.5" y="729" width="292" height="72" rx="8" ry="8" class="nodeFile"/>
        </g>
        <g id='Node_edges.js'>
          <rect x="506.5" y="729" width="292" height="72" rx="8" ry="8" class="nodeFile"/>
        </g>
        <g id='Node_edge.js'>
          <rect x="206.5" y="809" width="292" height="72" rx="8" ry="8" class="nodeFile"/>
        </g>
        <g id='Node_containers.js'>
          <rect x="506.5" y="809" width="292" height="72" rx="8" ry="8" class="nodeFile"/>
        </g>
        <g id='Node_container.js'>
          <rect x="356.5" y="889" width="292" height="72" rx="8" ry="8" class="nodeFile"/>
        </g>
        <g id='Node_constants.js'>
          <rect x="206.5" y="969" width="292" height="72" rx="8" ry="8" class="nodeFile"/>
        </g>
        <g id='Node_rectangle.js'>
          <rect x="506.5" y="969" width="292" height="72" rx="8" ry="8" class="nodeFile"/>
        </g>
      </g>
      <g id='Node_util'>
        <rect x="339" y="1084" width="327" height="222" rx="2" ry="2" class="nodeFolder"/>
        <g id='Node_svg.js'>
          <rect x="356.5" y="1119" width="292" height="72" rx="8" ry="8" class="nodeFile"/>
        </g>
        <g id='Node_strings.js'>
          <rect x="356.5" y="1199" width="292" height="72" rx="8" ry="8" class="nodeFile"/>
        </g>
      </g>
    </g>
    <g id='Node_test'>
      <rect x="171.5" y="39" width="327" height="142" rx="2" ry="2" class="nodeFolder"/>
      <g id='Node_test.js'>
        <rect x="189" y="74" width="292" height="72" rx="8" ry="8" class="nodeFile"/>
      </g>
    </g>
    <g id='Node_cli'>
      <rect x="506.5" y="39" width="327" height="142" rx="2" ry="2" class="nodeFolder"/>
      <g id='Node_index.js'>
        <rect x="524" y="74" width="292" height="72" rx="8" ry="8" class="nodeFile"/>
      </g>
    </g>
    <g id='Node_test_js_dependency.js'>
      <rect x="56.5" y="189" width="292" height="72" rx="8" ry="8" class="nodeFile"/>
    </g>
    <g id='Node_test_swift_dependency.js'>
      <rect x="356.5" y="189" width="292" height="72" rx="8" ry="8" class="nodeFile"/>
    </g>
    <g id='Node_test_ts_dependency.js'>
      <rect x="656.5" y="189" width="292" height="72" rx="8" ry="8" class="nodeFile"/>
    </g>
  </g>
  <g id='Edges'>
    <path class="line" d="M632.5 945 C 642.5 965,212.5 965, 222.5 985" fill="none" stroke="#377E22">
      <title>container.js
⬇
constants.js</title>
    </path>
    <path class="line" d="M632.5 945 C 642.5 965,512.5 965, 522.5 985" fill="none" stroke="#377E22">
      <title>container.js
⬇
rectangle.js</title>
    </path>
    <path class="line" d="M782.5 865 C 792.5 925,212.5 925, 222.5 985" fill="none" stroke="#377E22">
      <title>containers.js
⬇
constants.js</title>
    </path>
    <path class="line" d="M782.5 865 C 792.5 885,362.5 885, 372.5 905" fill="none" stroke="#377E22">
      <title>containers.js
⬇
container.js</title>
    </path>
    <path class="line" d="M482.5 865 C 492.5 885,362.5 885, 372.5 905" fill="none" stroke="#377E22">
      <title>edge.js
⬇
container.js</title>
    </path>
    <path class="line" d="M782.5 785 C 792.5 845,362.5 845, 372.5 905" fill="none" stroke="#377E22">
      <title>edges.js
⬇
container.js</title>
    </path>
    <path class="line" d="M782.5 785 C 792.5 805,212.5 805, 222.5 825" fill="none" stroke="#377E22">
      <title>edges.js
⬇
edge.js</title>
    </path>
    <path class="line" d="M632.5 360 C 652.5 672,202.5 673, 222.5 985" fill="none" stroke="#377E22">
      <title>glad.js
⬇
constants.js</title>
    </path>
    <path class="line" d="M632.5 360 C 650.5 632,354.5 633, 372.5 905" fill="none" stroke="#377E22">
      <title>glad.js
⬇
container.js</title>
    </path>
    <path class="line" d="M632.5 360 C 642.5 512,212.5 513, 222.5 665" fill="none" stroke="#377E22">
      <title>glad.js
⬇
graph.js</title>
    </path>
    <path class="line" d="M632.5 360 C 642.5 512,512.5 513, 522.5 665" fill="none" stroke="#377E22">
      <title>glad.js
⬇
layers.js</title>
    </path>
    <path class="line" d="M632.5 360 C 642.5 397,662.5 398, 672.5 435" fill="none" stroke="#377E22">
      <title>glad.js
⬇
renderAsGrid.js</title>
    </path>
    <path class="line" d="M632.5 360 C 642.5 397,62.5 398, 72.5 435" fill="none" stroke="#377E22">
      <title>glad.js
⬇
renderAsLayers.js</title>
    </path>
    <path class="line" d="M632.5 360 C 642.5 397,362.5 398, 372.5 435" fill="none" stroke="#377E22">
      <title>glad.js
⬇
renderAsPoster.js</title>
    </path>
    <path class="line" d="M632.5 360 C 642.5 437,362.5 438, 372.5 515" fill="none" stroke="#377E22">
      <title>glad.js
⬇
renderBase.js</title>
    </path>
    <path class="line" d="M632.5 360 C 660.5 787,344.5 788, 372.5 1215" fill="none" stroke="#377E22">
      <title>glad.js
⬇
strings.js</title>
    </path>
    <path class="line" d="M482.5 705 C 492.5 805,362.5 805, 372.5 905" fill="none" stroke="#377E22">
      <title>graph.js
⬇
container.js</title>
    </path>
    <path class="line" d="M482.5 705 C 492.5 765,212.5 765, 222.5 825" fill="none" stroke="#377E22">
      <title>graph.js
⬇
edge.js</title>
    </path>
    <path class="line" d="M482.5 705 C 492.5 725,512.5 725, 522.5 745" fill="none" stroke="#377E22">
      <title>graph.js
⬇
edges.js</title>
    </path>
    <path class="line" d="M482.5 705 C 499.5 960,355.5 960, 372.5 1215" fill="none" stroke="#377E22">
      <title>graph.js
⬇
strings.js</title>
    </path>
    <path class="line" d="M800 130 C 828 557,194.5 558, 222.5 985" fill="none" stroke="#377E22">
      <title>index.js
⬇
constants.js</title>
    </path>
    <path class="line" d="M800 130 C 810 225,362.5 225, 372.5 320" fill="none" stroke="#377E22">
      <title>index.js
⬇
glad.js</title>
    </path>
    <path class="line" d="M482.5 785 C 492.5 885,212.5 885, 222.5 985" fill="none" stroke="#377E22">
      <title>layer.js
⬇
constants.js</title>
    </path>
    <path class="line" d="M482.5 785 C 492.5 805,512.5 805, 522.5 825" fill="none" stroke="#377E22">
      <title>layer.js
⬇
containers.js</title>
    </path>
    <path class="line" d="M482.5 785 C 492.5 885,512.5 885, 522.5 985" fill="none" stroke="#377E22">
      <title>layer.js
⬇
rectangle.js</title>
    </path>
    <path class="line" d="M782.5 705 C 792.5 845,212.5 845, 222.5 985" fill="none" stroke="#377E22">
      <title>layers.js
⬇
constants.js</title>
    </path>
    <path class="line" d="M782.5 705 C 792.5 805,362.5 805, 372.5 905" fill="none" stroke="#377E22">
      <title>layers.js
⬇
container.js</title>
    </path>
    <path class="line" d="M782.5 705 C 792.5 725,212.5 725, 222.5 745" fill="none" stroke="#377E22">
      <title>layers.js
⬇
layer.js</title>
    </path>
    <path class="line" d="M932.5 475 C 949.5 730,205.5 730, 222.5 985" fill="none" stroke="#377E22">
      <title>renderAsGrid.js
⬇
constants.js</title>
    </path>
    <path class="line" d="M932.5 475 C 946.5 690,358.5 690, 372.5 905" fill="none" stroke="#377E22">
      <title>renderAsGrid.js
⬇
container.js</title>
    </path>
    <path class="line" d="M932.5 475 C 942.5 570,212.5 570, 222.5 665" fill="none" stroke="#377E22">
      <title>renderAsGrid.js
⬇
graph.js</title>
    </path>
    <path class="line" d="M932.5 475 C 942.5 495,362.5 495, 372.5 515" fill="none" stroke="#377E22">
      <title>renderAsGrid.js
⬇
renderBase.js</title>
    </path>
    <path class="line" d="M332.5 475 C 349.5 730,205.5 730, 222.5 985" fill="none" stroke="#377E22">
      <title>renderAsLayers.js
⬇
constants.js</title>
    </path>
    <path class="line" d="M332.5 475 C 346.5 690,358.5 690, 372.5 905" fill="none" stroke="#377E22">
      <title>renderAsLayers.js
⬇
container.js</title>
    </path>
    <path class="line" d="M332.5 475 C 342.5 570,212.5 570, 222.5 665" fill="none" stroke="#377E22">
      <title>renderAsLayers.js
⬇
graph.js</title>
    </path>
    <path class="line" d="M332.5 475 C 342.5 570,512.5 570, 522.5 665" fill="none" stroke="#377E22">
      <title>renderAsLayers.js
⬇
layers.js</title>
    </path>
    <path class="line" d="M332.5 475 C 342.5 495,362.5 495, 372.5 515" fill="none" stroke="#377E22">
      <title>renderAsLayers.js
⬇
renderBase.js</title>
    </path>
    <path class="line" d="M632.5 475 C 649.5 730,205.5 730, 222.5 985" fill="none" stroke="#377E22">
      <title>renderAsPoster.js
⬇
constants.js</title>
    </path>
    <path class="line" d="M632.5 475 C 646.5 690,358.5 690, 372.5 905" fill="none" stroke="#377E22">
      <title>renderAsPoster.js
⬇
container.js</title>
    </path>
    <path class="line" d="M632.5 475 C 642.5 570,212.5 570, 222.5 665" fill="none" stroke="#377E22">
      <title>renderAsPoster.js
⬇
graph.js</title>
    </path>
    <path class="line" d="M632.5 475 C 642.5 570,512.5 570, 522.5 665" fill="none" stroke="#377E22">
      <title>renderAsPoster.js
⬇
layers.js</title>
    </path>
    <path class="line" d="M632.5 475 C 642.5 495,362.5 495, 372.5 515" fill="none" stroke="#377E22">
      <title>renderAsPoster.js
⬇
renderBase.js</title>
    </path>
    <path class="line" d="M632.5 555 C 646.5 770,208.5 770, 222.5 985" fill="none" stroke="#377E22">
      <title>renderBase.js
⬇
constants.js</title>
    </path>
    <path class="line" d="M632.5 555 C 643.5 730,361.5 730, 372.5 905" fill="none" stroke="#377E22">
      <title>renderBase.js
⬇
container.js</title>
    </path>
    <path class="line" d="M632.5 555 C 642.5 690,212.5 690, 222.5 825" fill="none" stroke="#377E22">
      <title>renderBase.js
⬇
edge.js</title>
    </path>
    <path class="line" d="M632.5 555 C 642.5 650,512.5 650, 522.5 745" fill="none" stroke="#377E22">
      <title>renderBase.js
⬇
edges.js</title>
    </path>
    <path class="line" d="M632.5 555 C 642.5 610,212.5 610, 222.5 665" fill="none" stroke="#377E22">
      <title>renderBase.js
⬇
graph.js</title>
    </path>
    <path class="line" d="M632.5 555 C 642.5 650,212.5 650, 222.5 745" fill="none" stroke="#377E22">
      <title>renderBase.js
⬇
layer.js</title>
    </path>
    <path class="line" d="M632.5 555 C 642.5 610,512.5 610, 522.5 665" fill="none" stroke="#377E22">
      <title>renderBase.js
⬇
layers.js</title>
    </path>
    <path class="line" d="M632.5 555 C 646.5 770,508.5 770, 522.5 985" fill="none" stroke="#377E22">
      <title>renderBase.js
⬇
rectangle.js</title>
    </path>
    <path class="line" d="M632.5 555 C 654.5 885,350.5 885, 372.5 1215" fill="none" stroke="#377E22">
      <title>renderBase.js
⬇
strings.js</title>
    </path>
    <path class="line" d="M632.5 555 C 651.5 845,353.5 845, 372.5 1135" fill="none" stroke="#377E22">
      <title>renderBase.js
⬇
svg.js</title>
    </path>
    <path class="line" d="M632.5 1175 C 642.5 1195,362.5 1195, 372.5 1215" fill="none" stroke="#377E22">
      <title>svg.js
⬇
strings.js</title>
    </path>
    <path class="line" d="M332.5 245 C 342.5 282,362.5 283, 372.5 320" fill="none" stroke="#377E22">
      <title>test_js_dependency.js
⬇
glad.js</title>
    </path>
    <path class="line" d="M632.5 245 C 642.5 282,362.5 283, 372.5 320" fill="none" stroke="#377E22">
      <title>test_swift_dependency.js
⬇
glad.js</title>
    </path>
    <path class="line" d="M932.5 245 C 942.5 282,362.5 283, 372.5 320" fill="none" stroke="#377E22">
      <title>test_ts_dependency.js
⬇
glad.js</title>
    </path>
    <path class="line" d="M465 130 C 493 557,194.5 558, 222.5 985" fill="none" stroke="#377E22">
      <title>test.js
⬇
constants.js</title>
    </path>
    <path class="line" d="M465 130 C 490 517,347.5 518, 372.5 905" fill="none" stroke="#377E22">
      <title>test.js
⬇
container.js</title>
    </path>
    <path class="line" d="M465 130 C 475 225,362.5 225, 372.5 320" fill="none" stroke="#377E22">
      <title>test.js
⬇
glad.js</title>
    </path>
    <path class="line" d="M465 130 C 482 397,205.5 398, 222.5 665" fill="none" stroke="#377E22">
      <title>test.js
⬇
graph.js</title>
    </path>
    <path class="line" d="M465 130 C 475 282,662.5 283, 672.5 435" fill="none" stroke="#377E22">
      <title>test.js
⬇
renderAsGrid.js</title>
    </path>
    <path class="line" d="M465 130 C 475 282,62.5 283, 72.5 435" fill="none" stroke="#377E22">
      <title>test.js
⬇
renderAsLayers.js</title>
    </path>
    <path class="line" d="M465 130 C 475 282,362.5 283, 372.5 435" fill="none" stroke="#377E22">
      <title>test.js
⬇
renderAsPoster.js</title>
    </path>
    <path class="line" d="M465 130 C 475 167,62.5 168, 72.5 205" fill="none" stroke="#377E22">
      <title>test.js
⬇
test_js_dependency.js</title>
    </path>
    <path class="line" d="M465 130 C 475 167,362.5 168, 372.5 205" fill="none" stroke="#377E22">
      <title>test.js
⬇
test_swift_dependency.js</title>
    </path>
    <path class="line" d="M465 130 C 475 167,662.5 168, 672.5 205" fill="none" stroke="#377E22">
      <title>test.js
⬇
test_ts_dependency.js</title>
    </path>
  </g>
  <g id='Counters_glad'>
    <g id='Counters_lib'>
      <g id='Counters_glad.js'>
        <g>
          <circle cx="632.5" cy="360" r="10" fill="green"/>
          <text x="632.5" y="360" fill="white" font-size="10" text-anchor="middle" dominant-baseline="central">9</text>
          <title>glad.js
⬇
1 glad/lib/models/constants.js
2 glad/lib/models/container.js
3 glad/lib/models/graph.js
4 glad/lib/models/layers.js
5 glad/lib/render/renderAsGrid.js
6 glad/lib/render/renderAsLayers.js
7 glad/lib/render/renderAsPoster.js
8 glad/lib/render/renderBase.js
9 glad/lib/util/strings.js</title>
        </g>
        <g>
          <circle cx="372.5" cy="320" r="10" fill="blue"/>
          <text x="372.5" y="320" fill="white" font-size="10" text-anchor="middle" dominant-baseline="central">5</text>
          <title>1 glad/cli/index.js
2 glad/test/test.js
3 glad/test_js_dependency.js
4 glad/test_swift_dependency.js
5 glad/test_ts_dependency.js
⬇
glad.js</title>
        </g>
      </g>
      <g id='Counters_render'>
        <g id='Counters_renderAsLayers.js'>
          <g>
            <circle cx="332.5" cy="475" r="10" fill="green"/>
            <text x="332.5" y="475" fill="white" font-size="10" text-anchor="middle" dominant-baseline="central">5</text>
            <title>renderAsLayers.js
⬇
1 glad/lib/models/constants.js
2 glad/lib/models/container.js
3 glad/lib/models/graph.js
4 glad/lib/models/layers.js
5 glad/lib/render/renderBase.js</title>
          </g>
          <g>
            <circle cx="72.5" cy="435" r="10" fill="blue"/>
            <text x="72.5" y="435" fill="white" font-size="10" text-anchor="middle" dominant-baseline="central">2</text>
            <title>1 glad/lib/glad.js
2 glad/test/test.js
⬇
renderAsLayers.js</title>
          </g>
        </g>
        <g id='Counters_renderAsPoster.js'>
          <g>
            <circle cx="632.5" cy="475" r="10" fill="green"/>
            <text x="632.5" y="475" fill="white" font-size="10" text-anchor="middle" dominant-baseline="central">5</text>
            <title>renderAsPoster.js
⬇
1 glad/lib/models/constants.js
2 glad/lib/models/container.js
3 glad/lib/models/graph.js
4 glad/lib/models/layers.js
5 glad/lib/render/renderBase.js</title>
          </g>
          <g>
            <circle cx="372.5" cy="435" r="10" fill="blue"/>
            <text x="372.5" y="435" fill="white" font-size="10" text-anchor="middle" dominant-baseline="central">2</text>
            <title>1 glad/lib/glad.js
2 glad/test/test.js
⬇
renderAsPoster.js</title>
          </g>
        </g>
        <g id='Counters_renderAsGrid.js'>
          <g>
            <circle cx="932.5" cy="475" r="10" fill="green"/>
            <text x="932.5" y="475" fill="white" font-size="10" text-anchor="middle" dominant-baseline="central">4</text>
            <title>renderAsGrid.js
⬇
1 glad/lib/models/constants.js
2 glad/lib/models/container.js
3 glad/lib/models/graph.js
4 glad/lib/render/renderBase.js</title>
          </g>
          <g>
            <circle cx="672.5" cy="435" r="10" fill="blue"/>
            <text x="672.5" y="435" fill="white" font-size="10" text-anchor="middle" dominant-baseline="central">2</text>
            <title>1 glad/lib/glad.js
2 glad/test/test.js
⬇
renderAsGrid.js</title>
          </g>
        </g>
        <g id='Counters_renderBase.js'>
          <g>
            <circle cx="632.5" cy="555" r="10" fill="green"/>
            <text x="632.5" y="555" fill="white" font-size="10" text-anchor="middle" dominant-baseline="central">10</text>
            <title>renderBase.js
⬇
1 glad/lib/models/constants.js
2 glad/lib/models/container.js
3 glad/lib/models/edge.js
4 glad/lib/models/edges.js
5 glad/lib/models/graph.js
6 glad/lib/models/layer.js
7 glad/lib/models/layers.js
8 glad/lib/models/rectangle.js
9 glad/lib/util/strings.js
10 glad/lib/util/svg.js</title>
          </g>
          <g>
            <circle cx="372.5" cy="515" r="10" fill="blue"/>
            <text x="372.5" y="515" fill="white" font-size="10" text-anchor="middle" dominant-baseline="central">4</text>
            <title>1 glad/lib/glad.js
2 glad/lib/render/renderAsGrid.js
3 glad/lib/render/renderAsLayers.js
4 glad/lib/render/renderAsPoster.js
⬇
renderBase.js</title>
          </g>
        </g>
      </g>
      <g id='Counters_models'>
        <g id='Counters_graph.js'>
          <g>
            <circle cx="482.5" cy="705" r="10" fill="green"/>
            <text x="482.5" y="705" fill="white" font-size="10" text-anchor="middle" dominant-baseline="central">4</text>
            <title>graph.js
⬇
1 glad/lib/models/container.js
2 glad/lib/models/edge.js
3 glad/lib/models/edges.js
4 glad/lib/util/strings.js</title>
          </g>
          <g>
            <circle cx="222.5" cy="665" r="10" fill="blue"/>
            <text x="222.5" y="665" fill="white" font-size="10" text-anchor="middle" dominant-baseline="central">6</text>
            <title>1 glad/lib/glad.js
2 glad/lib/render/renderAsGrid.js
3 glad/lib/render/renderAsLayers.js
4 glad/lib/render/renderAsPoster.js
5 glad/lib/render/renderBase.js
6 glad/test/test.js
⬇
graph.js</title>
          </g>
        </g>
        <g id='Counters_layers.js'>
          <g>
            <circle cx="782.5" cy="705" r="10" fill="green"/>
            <text x="782.5" y="705" fill="white" font-size="10" text-anchor="middle" dominant-baseline="central">3</text>
            <title>layers.js
⬇
1 glad/lib/models/constants.js
2 glad/lib/models/container.js
3 glad/lib/models/layer.js</title>
          </g>
          <g>
            <circle cx="522.5" cy="665" r="10" fill="blue"/>
            <text x="522.5" y="665" fill="white" font-size="10" text-anchor="middle" dominant-baseline="central">4</text>
            <title>1 glad/lib/glad.js
2 glad/lib/render/renderAsLayers.js
3 glad/lib/render/renderAsPoster.js
4 glad/lib/render/renderBase.js
⬇
layers.js</title>
          </g>
        </g>
        <g id='Counters_layer.js'>
          <g>
            <circle cx="482.5" cy="785" r="10" fill="green"/>
            <text x="482.5" y="785" fill="white" font-size="10" text-anchor="middle" dominant-baseline="central">3</text>
            <title>layer.js
⬇
1 glad/lib/models/constants.js
2 glad/lib/models/containers.js
3 glad/lib/models/rectangle.js</title>
          </g>
          <g>
            <circle cx="222.5" cy="745" r="10" fill="blue"/>
            <text x="222.5" y="745" fill="white" font-size="10" text-anchor="middle" dominant-baseline="central">2</text>
            <title>1 glad/lib/models/layers.js
2 glad/lib/render/renderBase.js
⬇
layer.js</title>
          </g>
        </g>
        <g id='Counters_edges.js'>
          <g>
            <circle cx="782.5" cy="785" r="10" fill="green"/>
            <text x="782.5" y="785" fill="white" font-size="10" text-anchor="middle" dominant-baseline="central">2</text>
            <title>edges.js
⬇
1 glad/lib/models/container.js
2 glad/lib/models/edge.js</title>
          </g>
          <g>
            <circle cx="522.5" cy="745" r="10" fill="blue"/>
            <text x="522.5" y="745" fill="white" font-size="10" text-anchor="middle" dominant-baseline="central">2</text>
            <title>1 glad/lib/models/graph.js
2 glad/lib/render/renderBase.js
⬇
edges.js</title>
          </g>
        </g>
        <g id='Counters_edge.js'>
          <g>
            <circle cx="482.5" cy="865" r="10" fill="green"/>
            <text x="482.5" y="865" fill="white" font-size="10" text-anchor="middle" dominant-baseline="central">1</text>
            <title>edge.js
⬇
1 glad/lib/models/container.js</title>
          </g>
          <g>
            <circle cx="222.5" cy="825" r="10" fill="blue"/>
            <text x="222.5" y="825" fill="white" font-size="10" text-anchor="middle" dominant-baseline="central">3</text>
            <title>1 glad/lib/models/edges.js
2 glad/lib/models/graph.js
3 glad/lib/render/renderBase.js
⬇
edge.js</title>
          </g>
        </g>
        <g id='Counters_containers.js'>
          <g>
            <circle cx="782.5" cy="865" r="10" fill="green"/>
            <text x="782.5" y="865" fill="white" font-size="10" text-anchor="middle" dominant-baseline="central">2</text>
            <title>containers.js
⬇
1 glad/lib/models/constants.js
2 glad/lib/models/container.js</title>
          </g>
          <g>
            <circle cx="522.5" cy="825" r="10" fill="blue"/>
            <text x="522.5" y="825" fill="white" font-size="10" text-anchor="middle" dominant-baseline="central">1</text>
            <title>1 glad/lib/models/layer.js
⬇
containers.js</title>
          </g>
        </g>
        <g id='Counters_container.js'>
          <g>
            <circle cx="632.5" cy="945" r="10" fill="green"/>
            <text x="632.5" y="945" fill="white" font-size="10" text-anchor="middle" dominant-baseline="central">2</text>
            <title>container.js
⬇
1 glad/lib/models/constants.js
2 glad/lib/models/rectangle.js</title>
          </g>
          <g>
            <circle cx="372.5" cy="905" r="10" fill="blue"/>
            <text x="372.5" y="905" fill="white" font-size="10" text-anchor="middle" dominant-baseline="central">11</text>
            <title>1 glad/lib/glad.js
2 glad/lib/models/containers.js
3 glad/lib/models/edge.js
4 glad/lib/models/edges.js
5 glad/lib/models/graph.js
6 glad/lib/models/layers.js
7 glad/lib/render/renderAsGrid.js
8 glad/lib/render/renderAsLayers.js
9 glad/lib/render/renderAsPoster.js
10 glad/lib/render/renderBase.js
11 glad/test/test.js
⬇
container.js</title>
          </g>
        </g>
        <g id='Counters_constants.js'>
          <g>
            <circle cx="222.5" cy="985" r="10" fill="blue"/>
            <text x="222.5" y="985" fill="white" font-size="10" text-anchor="middle" dominant-baseline="central">11</text>
            <title>1 glad/cli/index.js
2 glad/lib/glad.js
3 glad/lib/models/container.js
4 glad/lib/models/containers.js
5 glad/lib/models/layer.js
6 glad/lib/models/layers.js
7 glad/lib/render/renderAsGrid.js
8 glad/lib/render/renderAsLayers.js
9 glad/lib/render/renderAsPoster.js
10 glad/lib/render/renderBase.js
11 glad/test/test.js
⬇
constants.js</title>
          </g>
        </g>
        <g id='Counters_rectangle.js'>
          <g>
            <circle cx="522.5" cy="985" r="10" fill="blue"/>
            <text x="522.5" y="985" fill="white" font-size="10" text-anchor="middle" dominant-baseline="central">3</text>
            <title>1 glad/lib/models/container.js
2 glad/lib/models/layer.js
3 glad/lib/render/renderBase.js
⬇
rectangle.js</title>
          </g>
        </g>
      </g>
      <g id='Counters_util'>
        <g id='Counters_svg.js'>
          <g>
            <circle cx="632.5" cy="1175" r="10" fill="green"/>
            <text x="632.5" y="1175" fill="white" font-size="10" text-anchor="middle" dominant-baseline="central">1</text>
            <title>svg.js
⬇
1 glad/lib/util/strings.js</title>
          </g>
          <g>
            <circle cx="372.5" cy="1135" r="10" fill="blue"/>
            <text x="372.5" y="1135" fill="white" font-size="10" text-anchor="middle" dominant-baseline="central">1</text>
            <title>1 glad/lib/render/renderBase.js
⬇
svg.js</title>
          </g>
        </g>
        <g id='Counters_strings.js'>
          <g>
            <circle cx="372.5" cy="1215" r="10" fill="blue"/>
            <text x="372.5" y="1215" fill="white" font-size="10" text-anchor="middle" dominant-baseline="central">4</text>
            <title>1 glad/lib/glad.js
2 glad/lib/models/graph.js
3 glad/lib/render/renderBase.js
4 glad/lib/util/svg.js
⬇
strings.js</title>
          </g>
        </g>
      </g>
    </g>
    <g id='Counters_test'>
      <g id='Counters_test.js'>
        <g>
          <circle cx="465" cy="130" r="10" fill="green"/>
          <text x="465" y="130" fill="white" font-size="10" text-anchor="middle" dominant-baseline="central">10</text>
          <title>test.js
⬇
1 glad/lib/glad.js
2 glad/lib/models/constants.js
3 glad/lib/models/container.js
4 glad/lib/models/graph.js
5 glad/lib/render/renderAsGrid.js
6 glad/lib/render/renderAsLayers.js
7 glad/lib/render/renderAsPoster.js
8 glad/test_js_dependency.js
9 glad/test_swift_dependency.js
10 glad/test_ts_dependency.js</title>
        </g>
      </g>
    </g>
    <g id='Counters_cli'>
      <g id='Counters_index.js'>
        <g>
          <circle cx="800" cy="130" r="10" fill="green"/>
          <text x="800" y="130" fill="white" font-size="10" text-anchor="middle" dominant-baseline="central">2</text>
          <title>index.js
⬇
1 glad/lib/glad.js
2 glad/lib/models/constants.js</title>
        </g>
      </g>
    </g>
    <g id='Counters_test_js_dependency.js'>
      <g>
        <circle cx="332.5" cy="245" r="10" fill="green"/>
        <text x="332.5" y="245" fill="white" font-size="10" text-anchor="middle" dominant-baseline="central">1</text>
        <title>test_js_dependency.js
⬇
1 glad/lib/glad.js</title>
      </g>
      <g>
        <circle cx="72.5" cy="205" r="10" fill="blue"/>
        <text x="72.5" y="205" fill="white" font-size="10" text-anchor="middle" dominant-baseline="central">1</text>
        <title>1 glad/test/test.js
⬇
test_js_dependency.js</title>
      </g>
    </g>
    <g id='Counters_test_swift_dependency.js'>
      <g>
        <circle cx="632.5" cy="245" r="10" fill="green"/>
        <text x="632.5" y="245" fill="white" font-size="10" text-anchor="middle" dominant-baseline="central">1</text>
        <title>test_swift_dependency.js
⬇
1 glad/lib/glad.js</title>
      </g>
      <g>
        <circle cx="372.5" cy="205" r="10" fill="blue"/>
        <text x="372.5" y="205" fill="white" font-size="10" text-anchor="middle" dominant-baseline="central">1</text>
        <title>1 glad/test/test.js
⬇
test_swift_dependency.js</title>
      </g>
    </g>
    <g id='Counters_test_ts_dependency.js'>
      <g>
        <circle cx="932.5" cy="245" r="10" fill="green"/>
        <text x="932.5" y="245" fill="white" font-size="10" text-anchor="middle" dominant-baseline="central">1</text>
        <title>test_ts_dependency.js
⬇
1 glad/lib/glad.js</title>
      </g>
      <g>
        <circle cx="672.5" cy="205" r="10" fill="blue"/>
        <text x="672.5" y="205" fill="white" font-size="10" text-anchor="middle" dominant-baseline="central">1</text>
        <title>1 glad/test/test.js
⬇
test_ts_dependency.js</title>
      </g>
    </g>
  </g>
  <g id='Labels_glad'>
    <text class="folderName" x="10" y="10">glad</text>
    <text x="10" y="1370" fill='black' font-size="75%">6 folders, 21 files</text>
    <g id='Labels_lib'>
      <text class="folderName" x="27.5" y="275">lib</text>
      <text x="27.5" y="1335" fill='black' font-size="75%">3 folders, 16 files, 12 incoming, path: .../glad/</text>
      <g id='Labels_glad.js'>
        <text class="nodeName" x="502.5" y="340" font-size="120%">glad.js</text>
      </g>
      <g id='Labels_render'>
        <text class="folderName" x="45" y="390">render</text>
        <text x="45" y="600" fill='black' font-size="75%">4 files, 7 incoming, 21 outgoing, path: .../glad/lib/</text>
        <g id='Labels_renderAsLayers.js'>
          <text class="nodeName" x="202.5" y="455" font-size="120%">renderAsLayers.js</text>
        </g>
        <g id='Labels_renderAsPoster.js'>
          <text class="nodeName" x="502.5" y="455" font-size="120%">renderAsPoster.js</text>
        </g>
        <g id='Labels_renderAsGrid.js'>
          <text class="nodeName" x="802.5" y="455" font-size="120%">renderAsGrid.js</text>
        </g>
        <g id='Labels_renderBase.js'>
          <text class="nodeName" x="502.5" y="535" font-size="120%">renderBase.js</text>
        </g>
      </g>
      <g id='Labels_models'>
        <text class="folderName" x="195" y="620">models</text>
        <text x="195" y="1070" fill='black' font-size="75%">9 files, 27 incoming, 1 outgoing, path: .../glad/lib/</text>
        <g id='Labels_graph.js'>
          <text class="nodeName" x="352.5" y="685" font-size="120%">graph.js</text>
        </g>
        <g id='Labels_layers.js'>
          <text class="nodeName" x="652.5" y="685" font-size="120%">layers.js</text>
        </g>
        <g id='Labels_layer.js'>
          <text class="nodeName" x="352.5" y="765" font-size="120%">layer.js</text>
        </g>
        <g id='Labels_edges.js'>
          <text class="nodeName" x="652.5" y="765" font-size="120%">edges.js</text>
        </g>
        <g id='Labels_edge.js'>
          <text class="nodeName" x="352.5" y="845" font-size="120%">edge.js</text>
        </g>
        <g id='Labels_containers.js'>
          <text class="nodeName" x="652.5" y="845" font-size="120%">containers.js</text>
        </g>
        <g id='Labels_container.js'>
          <text class="nodeName" x="502.5" y="925" font-size="120%">container.js</text>
        </g>
        <g id='Labels_constants.js'>
          <text class="nodeName" x="352.5" y="1005" font-size="120%">constants.js</text>
        </g>
        <g id='Labels_rectangle.js'>
          <text class="nodeName" x="652.5" y="1005" font-size="120%">rectangle.js</text>
        </g>
      </g>
      <g id='Labels_util'>
        <text class="folderName" x="345" y="1090">util</text>
        <text x="345" y="1300" fill='black' font-size="75%">2 files, 4 incoming, path: .../glad/lib/</text>
        <g id='Labels_svg.js'>
          <text class="nodeName" x="502.5" y="1155" font-size="120%">svg.js</text>
        </g>
        <g id='Labels_strings.js'>
          <text class="nodeName" x="502.5" y="1235" font-size="120%">strings.js</text>
        </g>
      </g>
    </g>
    <g id='Labels_test'>
      <text class="folderName" x="177.5" y="45">test</text>
      <text x="177.5" y="175" fill='black' font-size="75%">1 file, 10 outgoing, path: .../glad/</text>
      <g id='Labels_test.js'>
        <text class="nodeName" x="335" y="110" font-size="120%">test.js</text>
      </g>
    </g>
    <g id='Labels_cli'>
      <text class="folderName" x="512.5" y="45">cli</text>
      <text x="512.5" y="175" fill='black' font-size="75%">1 file, 2 outgoing, path: .../glad/</text>
      <g id='Labels_index.js'>
        <text class="nodeName" x="670" y="110" font-size="120%">index.js</text>
      </g>
    </g>
    <g id='Labels_test_js_dependency.js'>
      <text class="nodeName" x="202.5" y="225" font-size="120%">test_js_dependency.js</text>
    </g>
    <g id='Labels_test_swift_dependency.js'>
      <text class="nodeName" x="502.5" y="225" font-size="120%">test_swift_dependency.js</text>
    </g>
    <g id='Labels_test_ts_dependency.js'>
      <text class="nodeName" x="802.5" y="225" font-size="120%">test_ts_dependency.js</text>
    </g>
  </g>
  <g id='Layers_Text'>
    <g id='Layer:0 of glad'>
      <text x="977.5" y="45" class='layerText' dominant-baseline="hanging" text-anchor="end" >1 </text>
    </g>
    <g id='Layer:0 of test'>
      <text x="475" y="80" class='layerText' dominant-baseline="hanging" text-anchor="end" >1 </text>
    </g>
    <g id='Layer:0 of cli'>
      <text x="810" y="80" class='layerText' dominant-baseline="hanging" text-anchor="end" >1 </text>
    </g>
    <g id='Layer:1 of glad'>
      <text x="977.5" y="195" class='layerText' dominant-baseline="hanging" text-anchor="end" >2 </text>
    </g>
    <g id='Layer:2 of glad'>
      <text x="977.5" y="275" class='layerText' dominant-baseline="hanging" text-anchor="end" >3 </text>
    </g>
    <g id='Layer:0 of lib'>
      <text x="960" y="310" class='layerText' dominant-baseline="hanging" text-anchor="end" >1 </text>
    </g>
    <g id='Layer:1 of lib'>
      <text x="960" y="390" class='layerText' dominant-baseline="hanging" text-anchor="end" >2 </text>
    </g>
    <g id='Layer:0 of render'>
      <text x="942.5" y="425" class='layerText' dominant-baseline="hanging" text-anchor="end" >1 </text>
    </g>
    <g id='Layer:1 of render'>
      <text x="942.5" y="505" class='layerText' dominant-baseline="hanging" text-anchor="end" >2 </text>
    </g>
    <g id='Layer:2 of lib'>
      <text x="960" y="620" class='layerText' dominant-baseline="hanging" text-anchor="end" >3 </text>
    </g>
    <g id='Layer:0 of models'>
      <text x="792.5" y="655" class='layerText' dominant-baseline="hanging" text-anchor="end" >1 </text>
    </g>
    <g id='Layer:1 of models'>
      <text x="792.5" y="735" class='layerText' dominant-baseline="hanging" text-anchor="end" >2 </text>
    </g>
    <g id='Layer:2 of models'>
      <text x="792.5" y="815" class='layerText' dominant-baseline="hanging" text-anchor="end" >3 </text>
    </g>
    <g id='Layer:3 of models'>
      <text x="792.5" y="895" class='layerText' dominant-baseline="hanging" text-anchor="end" >4 </text>
    </g>
    <g id='Layer:4 of models'>
      <text x="792.5" y="975" class='layerText' dominant-baseline="hanging" text-anchor="end" >5 </text>
    </g>
    <g id='Layer:3 of lib'>
      <text x="960" y="1090" class='layerText' dominant-baseline="hanging" text-anchor="end" >4 </text>
    </g>
    <g id='Layer:0 of util'>
      <text x="642.5" y="1125" class='layerText' dominant-baseline="hanging" text-anchor="end" >1 </text>
    </g>
    <g id='Layer:1 of util'>
      <text x="642.5" y="1205" class='layerText' dominant-baseline="hanging" text-anchor="end" >2 </text>
    </g>
  </g>
</svg>