<?xml version="1.0" standalone="no"?>
<svg width="2240" height="1380" xmlns="http://www.w3.org/2000/svg" font-family="Arial, Helvetica, sans-serif">
  <style>
    .layerRectangle {
      stroke: black;
      stroke-dasharray: 5,5;
      fill: url('#layers')
    }
    .layerText {
      fill: purple;
      font-size: 150%;
      filter: url(#outlineWhite);
    }
    .nodeFolder {
      fill: #aaaaaa;
      opacity: 0.3;
      stroke: whitesmoke;
    }
    .nodeFile {
      fill: #ffffff;
      opacity: 0.9;
      stroke: gray;
    }
    .nodeFileOrphan {
      fill: #ff6b6b !important;
      opacity: 0.9;
      stroke: gray;
    }
    .folderName {
      font-size: 180%;
      fill : white;
      font-weight: bolder;
      text-anchor: start;
      letter-spacing : 1px;
      dominant-baseline: hanging;
      filter: url(#shadow);
    }
    .nodeName {
      fill : black;
      font-weight: bold;
      text-anchor: middle;
      dominant-baseline: central;
      filter: url(#outlineWhite);
    }
    .line {
      fill : none;
      stroke: #377E22;
      stroke-width: 3;
      opacity: 0.5;
    }
    .line:hover {
      stroke-width: 6;
      opacity: 1;
    }
    .lineOrange {
      fill : none;
      stroke: #F09235;
      stroke-width: 8;
      opacity: 0.5;
    }
    .lineOrange:hover {
      stroke-width: 13;
      opacity: 1;
    }
    .lineRed {
      fill : none;
      stroke: #EB4132;
      stroke-width: 8;
      opacity: 0.5;
    }
    .lineRed:hover {
      stroke-width: 13;
      opacity: 1;
    }
</style>
  <defs id='idSvgDef'>
    <linearGradient id="layers" gradientTransform="rotate(90)">
      <stop offset="0%" stop-color="#691872" stop-opacity="0.1"/>
      <stop offset="100%" stop-color="#691872" stop-opacity="0.3" />
    </linearGradient>
    <filter id="shadow">
      <feGaussianBlur in="SourceAlpha" stdDeviation="2"/>
      <feOffset dx="1" dy="1" result="offsetblur"/>
      <feFlood flood-color="black"/>
      <feComposite in2="offsetblur" operator="in"/>
      <feMerge>
        <feMergeNode/>
        <feMergeNode in="SourceGraphic"/>
      </feMerge>
    </filter>
    <filter id="outlineWhite">
      <feMorphology in="SourceAlpha" result="DILATED" operator="dilate" radius="2"/>
      <feFlood flood-color="white" flood-opacity="0.5" result="WHITE"/>
      <feComposite in="WHITE" in2="DILATED" operator="in" result="OUTLINE"/>
      <feMerge>
        <feMergeNode in="OUTLINE" />
        <feMergeNode in="SourceGraphic" />
      </feMerge>
    </filter>
    <filter id="outlineBlack">
      <feMorphology in="SourceAlpha" result="DILATED" operator="dilate" radius="2"/>
      <feFlood flood-color="black" flood-opacity="0.5" result="BLACK"/>
      <feComposite in="BLACK" in2="DILATED" operator="in" result="OUTLINE"/>
      <feMerge>
        <feMergeNode in="OUTLINE"/>
        <feMergeNode in="SourceGraphic"/>
      </feMerge>
    </filter>
    <marker id='lineEnd' viewBox= '0 -5 30 10' refX='12' orient='auto'>
      <path d='M0,-16L32,0L0,16' fill='#3058FF' opacity="0.67"/>
    </marker>
    <marker id='lineStart' viewBox= '0 -4 8 8' refX='4' orient='auto'>
      <circle cx='4' r='4' fill='#377E22'/>
    </marker>
  </defs>
  <rect width="100%" height="100%" fill="white"/>
  <g id='Layers_Rects'>
    <g id='Layer:0 of glad'>
      <rect x="17.5" y="35" width="2205" height="230" rx="2" ry="2" class="layerRectangle" id='glad 0'/>
    </g>
    <g id='Layer:0 of test'>
      <rect x="352.5" y="70" width="1200" height="80" rx="2" ry="2" class="layerRectangle" id='test 0'/>
    </g>
    <g id='Layer:1 of test'>
      <rect x="352.5" y="150" width="1200" height="80" rx="2" ry="2" class="layerRectangle" id='test 1'/>
    </g>
    <g id='Layer:0 of cli'>
      <rect x="1587.5" y="70" width="300" height="80" rx="2" ry="2" class="layerRectangle" id='cli 0'/>
    </g>
    <g id='Layer:1 of glad'>
      <rect x="17.5" y="265" width="2205" height="1080" rx="2" ry="2" class="layerRectangle" id='glad 1'/>
    </g>
    <g id='Layer:0 of lib'>
      <rect x="35" y="300" width="2170" height="230" rx="2" ry="2" class="layerRectangle" id='lib 0'/>
    </g>
    <g id='Layer:0 of render'>
      <rect x="52.5" y="335" width="900" height="80" rx="2" ry="2" class="layerRectangle" id='render 0'/>
    </g>
    <g id='Layer:1 of render'>
      <rect x="52.5" y="415" width="900" height="80" rx="2" ry="2" class="layerRectangle" id='render 1'/>
    </g>
    <g id='Layer:0 of parsers'>
      <rect x="987.5" y="335" width="1200" height="80" rx="2" ry="2" class="layerRectangle" id='parsers 0'/>
    </g>
    <g id='Layer:1 of lib'>
      <rect x="35" y="530" width="2170" height="80" rx="2" ry="2" class="layerRectangle" id='lib 1'/>
    </g>
    <g id='Layer:2 of lib'>
      <rect x="35" y="610" width="2170" height="470" rx="2" ry="2" class="layerRectangle" id='lib 2'/>
    </g>
    <g id='Layer:0 of models'>
      <rect x="820" y="645" width="600" height="80" rx="2" ry="2" class="layerRectangle" id='models 0'/>
    </g>
    <g id='Layer:1 of models'>
      <rect x="820" y="725" width="600" height="80" rx="2" ry="2" class="layerRectangle" id='models 1'/>
    </g>
    <g id='Layer:2 of models'>
      <rect x="820" y="805" width="600" height="80" rx="2" ry="2" class="layerRectangle" id='models 2'/>
    </g>
    <g id='Layer:3 of models'>
      <rect x="820" y="885" width="600" height="80" rx="2" ry="2" class="layerRectangle" id='models 3'/>
    </g>
    <g id='Layer:4 of models'>
      <rect x="820" y="965" width="600" height="80" rx="2" ry="2" class="layerRectangle" id='models 4'/>
    </g>
    <g id='Layer:3 of lib'>
      <rect x="35" y="1080" width="2170" height="230" rx="2" ry="2" class="layerRectangle" id='lib 3'/>
    </g>
    <g id='Layer:0 of util'>
      <rect x="970" y="1115" width="300" height="80" rx="2" ry="2" class="layerRectangle" id='util 0'/>
    </g>
    <g id='Layer:1 of util'>
      <rect x="970" y="1195" width="300" height="80" rx="2" ry="2" class="layerRectangle" id='util 1'/>
    </g>
  </g>
  <g id='Node_glad'>
    <rect x="4" y="4" width="2232" height="1372" rx="2" ry="2" class="nodeFolder"/>
    <g id='Node_lib'>
      <rect x="21.5" y="269" width="2197" height="1072" rx="2" ry="2" class="nodeFolder"/>
      <g id='Node_render'>
        <rect x="39" y="304" width="927" height="222" rx="2" ry="2" class="nodeFolder"/>
        <g id='Node_renderAsLayers.js'>
          <rect x="56.5" y="339" width="292" height="72" rx="8" ry="8" class="nodeFile"/>
        </g>
        <g id='Node_renderAsPoster.js'>
          <rect x="356.5" y="339" width="292" height="72" rx="8" ry="8" class="nodeFile"/>
        </g>
        <g id='Node_renderAsGrid.js'>
          <rect x="656.5" y="339" width="292" height="72" rx="8" ry="8" class="nodeFile"/>
        </g>
        <g id='Node_renderBase.js'>
          <rect x="356.5" y="419" width="292" height="72" rx="8" ry="8" class="nodeFile"/>
        </g>
      </g>
      <g id='Node_parsers'>
        <rect x="974" y="304" width="1227" height="142" rx="2" ry="2" class="nodeFolder"/>
        <g id='Node_jsTsParser.js'>
          <rect x="991.5" y="339" width="292" height="72" rx="8" ry="8" class="nodeFile"/>
        </g>
        <g id='Node_dotParser.js'>
          <rect x="1291.5" y="339" width="292" height="72" rx="8" ry="8" class="nodeFile"/>
        </g>
        <g id='Node_swiftParser.js'>
          <rect x="1591.5" y="339" width="292" height="72" rx="8" ry="8" class="nodeFile"/>
        </g>
        <g id='Node_flutterDartParser.js'>
          <rect x="1891.5" y="339" width="292" height="72" rx="8" ry="8" class="nodeFile"/>
        </g>
      </g>
      <g id='Node_glad.js'>
        <rect x="974" y="534" width="292" height="72" rx="8" ry="8" class="nodeFile"/>
      </g>
      <g id='Node_models'>
        <rect x="806.5" y="614" width="627" height="462" rx="2" ry="2" class="nodeFolder"/>
        <g id='Node_graph.js'>
          <rect x="824" y="649" width="292" height="72" rx="8" ry="8" class="nodeFile"/>
        </g>
        <g id='Node_layers.js'>
          <rect x="1124" y="649" width="292" height="72" rx="8" ry="8" class="nodeFile"/>
        </g>
        <g id='Node_layer.js'>
          <rect x="824" y="729" width="292" height="72" rx="8" ry="8" class="nodeFile"/>
        </g>
        <g id='Node_edges.js'>
          <rect x="1124" y="729" width="292" height="72" rx="8" ry="8" class="nodeFile"/>
        </g>
        <g id='Node_edge.js'>
          <rect x="824" y="809" width="292" height="72" rx="8" ry="8" class="nodeFile"/>
        </g>
        <g id='Node_containers.js'>
          <rect x="1124" y="809" width="292" height="72" rx="8" ry="8" class="nodeFile"/>
        </g>
        <g id='Node_container.js'>
          <rect x="974" y="889" width="292" height="72" rx="8" ry="8" class="nodeFile"/>
        </g>
        <g id='Node_constants.js'>
          <rect x="824" y="969" width="292" height="72" rx="8" ry="8" class="nodeFile"/>
        </g>
        <g id='Node_rectangle.js'>
          <rect x="1124" y="969" width="292" height="72" rx="8" ry="8" class="nodeFile"/>
        </g>
      </g>
      <g id='Node_util'>
        <rect x="956.5" y="1084" width="327" height="222" rx="2" ry="2" class="nodeFolder"/>
        <g id='Node_svg.js'>
          <rect x="974" y="1119" width="292" height="72" rx="8" ry="8" class="nodeFile"/>
        </g>
        <g id='Node_strings.js'>
          <rect x="974" y="1199" width="292" height="72" rx="8" ry="8" class="nodeFile"/>
        </g>
      </g>
    </g>
    <g id='Node_test'>
      <rect x="339" y="39" width="1227" height="222" rx="2" ry="2" class="nodeFolder"/>
      <g id='Node_test.js'>
        <rect x="806.5" y="74" width="292" height="72" rx="8" ry="8" class="nodeFile"/>
      </g>
      <g id='Node_test_js.js'>
        <rect x="356.5" y="154" width="292" height="72" rx="8" ry="8" class="nodeFile"/>
      </g>
      <g id='Node_test_swift.js'>
        <rect x="656.5" y="154" width="292" height="72" rx="8" ry="8" class="nodeFile"/>
      </g>
      <g id='Node_test_ts.js'>
        <rect x="956.5" y="154" width="292" height="72" rx="8" ry="8" class="nodeFile"/>
      </g>
      <g id='Node_test_dot.js'>
        <rect x="1256.5" y="154" width="292" height="72" rx="8" ry="8" class="nodeFile"/>
      </g>
    </g>
    <g id='Node_cli'>
      <rect x="1574" y="39" width="327" height="142" rx="2" ry="2" class="nodeFolder"/>
      <g id='Node_index.js'>
        <rect x="1591.5" y="74" width="292" height="72" rx="8" ry="8" class="nodeFile"/>
      </g>
    </g>
  </g>
  <g id='Edges'>
    <path d="M1250 945 C 1260 965,830 965, 840 985" fill="none" class="line">
      <title>container.js
⬇
constants.js</title>
    </path>
    <path d="M1250 945 C 1260 965,1130 965, 1140 985" fill="none" class="line">
      <title>container.js
⬇
rectangle.js</title>
    </path>
    <path d="M1400 865 C 1410 925,830 925, 840 985" fill="none" class="line">
      <title>containers.js
⬇
constants.js</title>
    </path>
    <path d="M1400 865 C 1410 885,980 885, 990 905" fill="none" class="line">
      <title>containers.js
⬇
container.js</title>
    </path>
    <path d="M1567.5 395 C 1584.5 650,973 650, 990 905" fill="none" class="line">
      <title>dotParser.js
⬇
container.js</title>
    </path>
    <path d="M1567.5 395 C 1577.5 472,980 473, 990 550" fill="none" class="lineRed">
      <title>dotParser.js
⬇
glad.js</title>
    </path>
    <path d="M1100 865 C 1110 885,980 885, 990 905" fill="none" class="line">
      <title>edge.js
⬇
container.js</title>
    </path>
    <path d="M1400 785 C 1410 845,980 845, 990 905" fill="none" class="line">
      <title>edges.js
⬇
container.js</title>
    </path>
    <path d="M1400 785 C 1410 805,830 805, 840 825" fill="none" class="line">
      <title>edges.js
⬇
edge.js</title>
    </path>
    <path d="M2167.5 395 C 2177.5 472,980 473, 990 550" fill="none" class="lineRed">
      <title>flutterDartParser.js
⬇
glad.js</title>
    </path>
    <path d="M1250 590 C 1263 787,827 788, 840 985" fill="none" class="line">
      <title>glad.js
⬇
constants.js</title>
    </path>
    <path d="M1250 590 C 1260 472,1297.5 473, 1307.5 355" fill="none" class="lineRed">
      <title>glad.js
⬇
dotParser.js</title>
    </path>
    <path d="M1250 590 C 1260 472,1897.5 473, 1907.5 355" fill="none" class="lineRed">
      <title>glad.js
⬇
flutterDartParser.js</title>
    </path>
    <path d="M1250 590 C 1260 627,830 628, 840 665" fill="none" class="line">
      <title>glad.js
⬇
graph.js</title>
    </path>
    <path d="M1250 590 C 1260 472,997.5 473, 1007.5 355" fill="none" class="lineRed">
      <title>glad.js
⬇
jsTsParser.js</title>
    </path>
    <path d="M1250 590 C 1260 627,1130 628, 1140 665" fill="none" class="line">
      <title>glad.js
⬇
layers.js</title>
    </path>
    <path d="M1250 590 C 1260 472,662.5 473, 672.5 355" fill="none" class="lineOrange">
      <title>glad.js
⬇
renderAsGrid.js</title>
    </path>
    <path d="M1250 590 C 1260 472,62.5 473, 72.5 355" fill="none" class="lineOrange">
      <title>glad.js
⬇
renderAsLayers.js</title>
    </path>
    <path d="M1250 590 C 1260 472,362.5 473, 372.5 355" fill="none" class="lineOrange">
      <title>glad.js
⬇
renderAsPoster.js</title>
    </path>
    <path d="M1250 590 C 1260 512,362.5 513, 372.5 435" fill="none" class="lineOrange">
      <title>glad.js
⬇
renderBase.js</title>
    </path>
    <path d="M1250 590 C 1260 472,1597.5 473, 1607.5 355" fill="none" class="lineRed">
      <title>glad.js
⬇
swiftParser.js</title>
    </path>
    <path d="M1100 705 C 1110 805,980 805, 990 905" fill="none" class="line">
      <title>graph.js
⬇
container.js</title>
    </path>
    <path d="M1100 705 C 1110 765,830 765, 840 825" fill="none" class="line">
      <title>graph.js
⬇
edge.js</title>
    </path>
    <path d="M1100 705 C 1110 725,1130 725, 1140 745" fill="none" class="line">
      <title>graph.js
⬇
edges.js</title>
    </path>
    <path d="M1100 705 C 1117 960,973 960, 990 1215" fill="none" class="line">
      <title>graph.js
⬇
strings.js</title>
    </path>
    <path d="M1867.5 130 C 1895.5 557,812 558, 840 985" fill="none" class="line">
      <title>index.js
⬇
constants.js</title>
    </path>
    <path d="M1867.5 130 C 1881.5 340,976 340, 990 550" fill="none" class="line">
      <title>index.js
⬇
glad.js</title>
    </path>
    <path d="M1267.5 395 C 1284.5 650,973 650, 990 905" fill="none" class="line">
      <title>jsTsParser.js
⬇
container.js</title>
    </path>
    <path d="M1267.5 395 C 1277.5 472,980 473, 990 550" fill="none" class="lineRed">
      <title>jsTsParser.js
⬇
glad.js</title>
    </path>
    <path d="M1267.5 395 C 1294.5 805,963 805, 990 1215" fill="none" class="line">
      <title>jsTsParser.js
⬇
strings.js</title>
    </path>
    <path d="M1100 785 C 1110 885,830 885, 840 985" fill="none" class="line">
      <title>layer.js
⬇
constants.js</title>
    </path>
    <path d="M1100 785 C 1110 805,1130 805, 1140 825" fill="none" class="line">
      <title>layer.js
⬇
containers.js</title>
    </path>
    <path d="M1100 785 C 1110 885,1130 885, 1140 985" fill="none" class="line">
      <title>layer.js
⬇
rectangle.js</title>
    </path>
    <path d="M1400 705 C 1410 845,830 845, 840 985" fill="none" class="line">
      <title>layers.js
⬇
constants.js</title>
    </path>
    <path d="M1400 705 C 1410 805,980 805, 990 905" fill="none" class="line">
      <title>layers.js
⬇
container.js</title>
    </path>
    <path d="M1400 705 C 1410 725,830 725, 840 745" fill="none" class="line">
      <title>layers.js
⬇
layer.js</title>
    </path>
    <path d="M932.5 395 C 951.5 690,821 690, 840 985" fill="none" class="line">
      <title>renderAsGrid.js
⬇
constants.js</title>
    </path>
    <path d="M932.5 395 C 949.5 650,973 650, 990 905" fill="none" class="line">
      <title>renderAsGrid.js
⬇
container.js</title>
    </path>
    <path d="M932.5 395 C 942.5 530,830 530, 840 665" fill="none" class="line">
      <title>renderAsGrid.js
⬇
graph.js</title>
    </path>
    <path d="M932.5 395 C 942.5 415,362.5 415, 372.5 435" fill="none" class="line">
      <title>renderAsGrid.js
⬇
renderBase.js</title>
    </path>
    <path d="M332.5 395 C 351.5 690,821 690, 840 985" fill="none" class="line">
      <title>renderAsLayers.js
⬇
constants.js</title>
    </path>
    <path d="M332.5 395 C 349.5 650,973 650, 990 905" fill="none" class="line">
      <title>renderAsLayers.js
⬇
container.js</title>
    </path>
    <path d="M332.5 395 C 342.5 530,830 530, 840 665" fill="none" class="line">
      <title>renderAsLayers.js
⬇
graph.js</title>
    </path>
    <path d="M332.5 395 C 342.5 530,1130 530, 1140 665" fill="none" class="line">
      <title>renderAsLayers.js
⬇
layers.js</title>
    </path>
    <path d="M332.5 395 C 342.5 415,362.5 415, 372.5 435" fill="none" class="line">
      <title>renderAsLayers.js
⬇
renderBase.js</title>
    </path>
    <path d="M632.5 395 C 651.5 690,821 690, 840 985" fill="none" class="line">
      <title>renderAsPoster.js
⬇
constants.js</title>
    </path>
    <path d="M632.5 395 C 649.5 650,973 650, 990 905" fill="none" class="line">
      <title>renderAsPoster.js
⬇
container.js</title>
    </path>
    <path d="M632.5 395 C 642.5 530,830 530, 840 665" fill="none" class="line">
      <title>renderAsPoster.js
⬇
graph.js</title>
    </path>
    <path d="M632.5 395 C 642.5 530,1130 530, 1140 665" fill="none" class="line">
      <title>renderAsPoster.js
⬇
layers.js</title>
    </path>
    <path d="M632.5 395 C 642.5 415,362.5 415, 372.5 435" fill="none" class="line">
      <title>renderAsPoster.js
⬇
renderBase.js</title>
    </path>
    <path d="M632.5 475 C 649.5 730,823 730, 840 985" fill="none" class="line">
      <title>renderBase.js
⬇
constants.js</title>
    </path>
    <path d="M632.5 475 C 646.5 690,976 690, 990 905" fill="none" class="line">
      <title>renderBase.js
⬇
container.js</title>
    </path>
    <path d="M632.5 475 C 643.5 650,829 650, 840 825" fill="none" class="line">
      <title>renderBase.js
⬇
edge.js</title>
    </path>
    <path d="M632.5 475 C 642.5 610,1130 610, 1140 745" fill="none" class="line">
      <title>renderBase.js
⬇
edges.js</title>
    </path>
    <path d="M632.5 475 C 642.5 570,830 570, 840 665" fill="none" class="line">
      <title>renderBase.js
⬇
graph.js</title>
    </path>
    <path d="M632.5 475 C 642.5 610,830 610, 840 745" fill="none" class="line">
      <title>renderBase.js
⬇
layer.js</title>
    </path>
    <path d="M632.5 475 C 642.5 570,1130 570, 1140 665" fill="none" class="line">
      <title>renderBase.js
⬇
layers.js</title>
    </path>
    <path d="M632.5 475 C 649.5 730,1123 730, 1140 985" fill="none" class="line">
      <title>renderBase.js
⬇
rectangle.js</title>
    </path>
    <path d="M632.5 475 C 656.5 845,966 845, 990 1215" fill="none" class="line">
      <title>renderBase.js
⬇
strings.js</title>
    </path>
    <path d="M632.5 475 C 654.5 805,968 805, 990 1135" fill="none" class="line">
      <title>renderBase.js
⬇
svg.js</title>
    </path>
    <path d="M1250 1175 C 1260 1195,980 1195, 990 1215" fill="none" class="line">
      <title>svg.js
⬇
strings.js</title>
    </path>
    <path d="M1867.5 395 C 1877.5 472,980 473, 990 550" fill="none" class="lineRed">
      <title>swiftParser.js
⬇
glad.js</title>
    </path>
    <path d="M1867.5 395 C 1894.5 805,963 805, 990 1215" fill="none" class="line">
      <title>swiftParser.js
⬇
strings.js</title>
    </path>
    <path d="M1532.5 210 C 1543.5 380,979 380, 990 550" fill="none" class="line">
      <title>test_dot.js
⬇
glad.js</title>
    </path>
    <path d="M632.5 210 C 657.5 597,815 598, 840 985" fill="none" class="line">
      <title>test_js.js
⬇
constants.js</title>
    </path>
    <path d="M632.5 210 C 643.5 380,979 380, 990 550" fill="none" class="line">
      <title>test_js.js
⬇
glad.js</title>
    </path>
    <path d="M932.5 210 C 957.5 597,815 598, 840 985" fill="none" class="line">
      <title>test_swift.js
⬇
constants.js</title>
    </path>
    <path d="M932.5 210 C 943.5 380,979 380, 990 550" fill="none" class="line">
      <title>test_swift.js
⬇
glad.js</title>
    </path>
    <path d="M1232.5 210 C 1257.5 597,815 598, 840 985" fill="none" class="line">
      <title>test_ts.js
⬇
constants.js</title>
    </path>
    <path d="M1232.5 210 C 1243.5 380,979 380, 990 550" fill="none" class="line">
      <title>test_ts.js
⬇
glad.js</title>
    </path>
    <path d="M1082.5 130 C 1110.5 557,812 558, 840 985" fill="none" class="line">
      <title>test.js
⬇
constants.js</title>
    </path>
    <path d="M1082.5 130 C 1107.5 517,965 518, 990 905" fill="none" class="line">
      <title>test.js
⬇
container.js</title>
    </path>
    <path d="M1082.5 130 C 1096.5 340,976 340, 990 550" fill="none" class="line">
      <title>test.js
⬇
glad.js</title>
    </path>
    <path d="M1082.5 130 C 1099.5 397,823 398, 840 665" fill="none" class="line">
      <title>test.js
⬇
graph.js</title>
    </path>
    <path d="M1082.5 130 C 1092.5 242,662.5 243, 672.5 355" fill="none" class="line">
      <title>test.js
⬇
renderAsGrid.js</title>
    </path>
    <path d="M1082.5 130 C 1092.5 242,62.5 243, 72.5 355" fill="none" class="line">
      <title>test.js
⬇
renderAsLayers.js</title>
    </path>
    <path d="M1082.5 130 C 1092.5 242,362.5 243, 372.5 355" fill="none" class="line">
      <title>test.js
⬇
renderAsPoster.js</title>
    </path>
    <path d="M1082.5 130 C 1092.5 150,1262.5 150, 1272.5 170" fill="none" class="line">
      <title>test.js
⬇
test_dot.js</title>
    </path>
    <path d="M1082.5 130 C 1092.5 150,362.5 150, 372.5 170" fill="none" class="line">
      <title>test.js
⬇
test_js.js</title>
    </path>
    <path d="M1082.5 130 C 1092.5 150,662.5 150, 672.5 170" fill="none" class="line">
      <title>test.js
⬇
test_swift.js</title>
    </path>
    <path d="M1082.5 130 C 1092.5 150,962.5 150, 972.5 170" fill="none" class="line">
      <title>test.js
⬇
test_ts.js</title>
    </path>
  </g>
  <g id='Counters_glad'>
    <g id='Counters_lib'>
      <g id='Counters_render'>
        <g id='Counters_renderAsLayers.js'>
          <g>
            <circle cx="332.5" cy="395" r="10" fill="green"/>
            <text x="332.5" y="395" fill="white" font-size="10" text-anchor="middle" dominant-baseline="central">5</text>
            <title>renderAsLayers.js
⬇
1 glad/lib/models/constants.js
2 glad/lib/models/container.js
3 glad/lib/models/graph.js
4 glad/lib/models/layers.js
5 glad/lib/render/renderBase.js</title>
          </g>
          <g>
            <circle cx="72.5" cy="355" r="10" fill="blue"/>
            <text x="72.5" y="355" fill="white" font-size="10" text-anchor="middle" dominant-baseline="central">2</text>
            <title>1 glad/lib/glad.js
2 glad/test/test.js
⬇
renderAsLayers.js</title>
          </g>
        </g>
        <g id='Counters_renderAsPoster.js'>
          <g>
            <circle cx="632.5" cy="395" r="10" fill="green"/>
            <text x="632.5" y="395" fill="white" font-size="10" text-anchor="middle" dominant-baseline="central">5</text>
            <title>renderAsPoster.js
⬇
1 glad/lib/models/constants.js
2 glad/lib/models/container.js
3 glad/lib/models/graph.js
4 glad/lib/models/layers.js
5 glad/lib/render/renderBase.js</title>
          </g>
          <g>
            <circle cx="372.5" cy="355" r="10" fill="blue"/>
            <text x="372.5" y="355" fill="white" font-size="10" text-anchor="middle" dominant-baseline="central">2</text>
            <title>1 glad/lib/glad.js
2 glad/test/test.js
⬇
renderAsPoster.js</title>
          </g>
        </g>
        <g id='Counters_renderAsGrid.js'>
          <g>
            <circle cx="932.5" cy="395" r="10" fill="green"/>
            <text x="932.5" y="395" fill="white" font-size="10" text-anchor="middle" dominant-baseline="central">4</text>
            <title>renderAsGrid.js
⬇
1 glad/lib/models/constants.js
2 glad/lib/models/container.js
3 glad/lib/models/graph.js
4 glad/lib/render/renderBase.js</title>
          </g>
          <g>
            <circle cx="672.5" cy="355" r="10" fill="blue"/>
            <text x="672.5" y="355" fill="white" font-size="10" text-anchor="middle" dominant-baseline="central">2</text>
            <title>1 glad/lib/glad.js
2 glad/test/test.js
⬇
renderAsGrid.js</title>
          </g>
        </g>
        <g id='Counters_renderBase.js'>
          <g>
            <circle cx="632.5" cy="475" r="10" fill="green"/>
            <text x="632.5" y="475" fill="white" font-size="10" text-anchor="middle" dominant-baseline="central">10</text>
            <title>renderBase.js
⬇
1 glad/lib/models/constants.js
2 glad/lib/models/container.js
3 glad/lib/models/edge.js
4 glad/lib/models/edges.js
5 glad/lib/models/graph.js
6 glad/lib/models/layer.js
7 glad/lib/models/layers.js
8 glad/lib/models/rectangle.js
9 glad/lib/util/strings.js
10 glad/lib/util/svg.js</title>
          </g>
          <g>
            <circle cx="372.5" cy="435" r="10" fill="blue"/>
            <text x="372.5" y="435" fill="white" font-size="10" text-anchor="middle" dominant-baseline="central">4</text>
            <title>1 glad/lib/glad.js
2 glad/lib/render/renderAsGrid.js
3 glad/lib/render/renderAsLayers.js
4 glad/lib/render/renderAsPoster.js
⬇
renderBase.js</title>
          </g>
        </g>
      </g>
      <g id='Counters_parsers'>
        <g id='Counters_jsTsParser.js'>
          <g>
            <circle cx="1267.5" cy="395" r="10" fill="green"/>
            <text x="1267.5" y="395" fill="white" font-size="10" text-anchor="middle" dominant-baseline="central">3</text>
            <title>jsTsParser.js
⬇
1 glad/lib/glad.js
2 glad/lib/models/container.js
3 glad/lib/util/strings.js</title>
          </g>
          <g>
            <circle cx="1007.5" cy="355" r="10" fill="blue"/>
            <text x="1007.5" y="355" fill="white" font-size="10" text-anchor="middle" dominant-baseline="central">1</text>
            <title>1 glad/lib/glad.js
⬇
jsTsParser.js</title>
          </g>
        </g>
        <g id='Counters_dotParser.js'>
          <g>
            <circle cx="1567.5" cy="395" r="10" fill="green"/>
            <text x="1567.5" y="395" fill="white" font-size="10" text-anchor="middle" dominant-baseline="central">2</text>
            <title>dotParser.js
⬇
1 glad/lib/glad.js
2 glad/lib/models/container.js</title>
          </g>
          <g>
            <circle cx="1307.5" cy="355" r="10" fill="blue"/>
            <text x="1307.5" y="355" fill="white" font-size="10" text-anchor="middle" dominant-baseline="central">1</text>
            <title>1 glad/lib/glad.js
⬇
dotParser.js</title>
          </g>
        </g>
        <g id='Counters_swiftParser.js'>
          <g>
            <circle cx="1867.5" cy="395" r="10" fill="green"/>
            <text x="1867.5" y="395" fill="white" font-size="10" text-anchor="middle" dominant-baseline="central">2</text>
            <title>swiftParser.js
⬇
1 glad/lib/glad.js
2 glad/lib/util/strings.js</title>
          </g>
          <g>
            <circle cx="1607.5" cy="355" r="10" fill="blue"/>
            <text x="1607.5" y="355" fill="white" font-size="10" text-anchor="middle" dominant-baseline="central">1</text>
            <title>1 glad/lib/glad.js
⬇
swiftParser.js</title>
          </g>
        </g>
        <g id='Counters_flutterDartParser.js'>
          <g>
            <circle cx="2167.5" cy="395" r="10" fill="green"/>
            <text x="2167.5" y="395" fill="white" font-size="10" text-anchor="middle" dominant-baseline="central">1</text>
            <title>flutterDartParser.js
⬇
1 glad/lib/glad.js</title>
          </g>
          <g>
            <circle cx="1907.5" cy="355" r="10" fill="blue"/>
            <text x="1907.5" y="355" fill="white" font-size="10" text-anchor="middle" dominant-baseline="central">1</text>
            <title>1 glad/lib/glad.js
⬇
flutterDartParser.js</title>
          </g>
        </g>
      </g>
      <g id='Counters_glad.js'>
        <g>
          <circle cx="1250" cy="590" r="10" fill="green"/>
          <text x="1250" y="590" fill="white" font-size="10" text-anchor="middle" dominant-baseline="central">11</text>
          <title>glad.js
⬇
1 glad/lib/models/constants.js
2 glad/lib/models/graph.js
3 glad/lib/models/layers.js
4 glad/lib/parsers/dotParser.js
5 glad/lib/parsers/flutterDartParser.js
6 glad/lib/parsers/jsTsParser.js
7 glad/lib/parsers/swiftParser.js
8 glad/lib/render/renderAsGrid.js
9 glad/lib/render/renderAsLayers.js
10 glad/lib/render/renderAsPoster.js
11 glad/lib/render/renderBase.js</title>
        </g>
        <g>
          <circle cx="990" cy="550" r="10" fill="blue"/>
          <text x="990" y="550" fill="white" font-size="10" text-anchor="middle" dominant-baseline="central">10</text>
          <title>1 glad/cli/index.js
2 glad/lib/parsers/dotParser.js
3 glad/lib/parsers/flutterDartParser.js
4 glad/lib/parsers/jsTsParser.js
5 glad/lib/parsers/swiftParser.js
6 glad/test/test.js
7 glad/test/test_dot.js
8 glad/test/test_js.js
9 glad/test/test_swift.js
10 glad/test/test_ts.js
⬇
glad.js</title>
        </g>
      </g>
      <g id='Counters_models'>
        <g id='Counters_graph.js'>
          <g>
            <circle cx="1100" cy="705" r="10" fill="green"/>
            <text x="1100" y="705" fill="white" font-size="10" text-anchor="middle" dominant-baseline="central">4</text>
            <title>graph.js
⬇
1 glad/lib/models/container.js
2 glad/lib/models/edge.js
3 glad/lib/models/edges.js
4 glad/lib/util/strings.js</title>
          </g>
          <g>
            <circle cx="840" cy="665" r="10" fill="blue"/>
            <text x="840" y="665" fill="white" font-size="10" text-anchor="middle" dominant-baseline="central">6</text>
            <title>1 glad/lib/glad.js
2 glad/lib/render/renderAsGrid.js
3 glad/lib/render/renderAsLayers.js
4 glad/lib/render/renderAsPoster.js
5 glad/lib/render/renderBase.js
6 glad/test/test.js
⬇
graph.js</title>
          </g>
        </g>
        <g id='Counters_layers.js'>
          <g>
            <circle cx="1400" cy="705" r="10" fill="green"/>
            <text x="1400" y="705" fill="white" font-size="10" text-anchor="middle" dominant-baseline="central">3</text>
            <title>layers.js
⬇
1 glad/lib/models/constants.js
2 glad/lib/models/container.js
3 glad/lib/models/layer.js</title>
          </g>
          <g>
            <circle cx="1140" cy="665" r="10" fill="blue"/>
            <text x="1140" y="665" fill="white" font-size="10" text-anchor="middle" dominant-baseline="central">4</text>
            <title>1 glad/lib/glad.js
2 glad/lib/render/renderAsLayers.js
3 glad/lib/render/renderAsPoster.js
4 glad/lib/render/renderBase.js
⬇
layers.js</title>
          </g>
        </g>
        <g id='Counters_layer.js'>
          <g>
            <circle cx="1100" cy="785" r="10" fill="green"/>
            <text x="1100" y="785" fill="white" font-size="10" text-anchor="middle" dominant-baseline="central">3</text>
            <title>layer.js
⬇
1 glad/lib/models/constants.js
2 glad/lib/models/containers.js
3 glad/lib/models/rectangle.js</title>
          </g>
          <g>
            <circle cx="840" cy="745" r="10" fill="blue"/>
            <text x="840" y="745" fill="white" font-size="10" text-anchor="middle" dominant-baseline="central">2</text>
            <title>1 glad/lib/models/layers.js
2 glad/lib/render/renderBase.js
⬇
layer.js</title>
          </g>
        </g>
        <g id='Counters_edges.js'>
          <g>
            <circle cx="1400" cy="785" r="10" fill="green"/>
            <text x="1400" y="785" fill="white" font-size="10" text-anchor="middle" dominant-baseline="central">2</text>
            <title>edges.js
⬇
1 glad/lib/models/container.js
2 glad/lib/models/edge.js</title>
          </g>
          <g>
            <circle cx="1140" cy="745" r="10" fill="blue"/>
            <text x="1140" y="745" fill="white" font-size="10" text-anchor="middle" dominant-baseline="central">2</text>
            <title>1 glad/lib/models/graph.js
2 glad/lib/render/renderBase.js
⬇
edges.js</title>
          </g>
        </g>
        <g id='Counters_edge.js'>
          <g>
            <circle cx="1100" cy="865" r="10" fill="green"/>
            <text x="1100" y="865" fill="white" font-size="10" text-anchor="middle" dominant-baseline="central">1</text>
            <title>edge.js
⬇
1 glad/lib/models/container.js</title>
          </g>
          <g>
            <circle cx="840" cy="825" r="10" fill="blue"/>
            <text x="840" y="825" fill="white" font-size="10" text-anchor="middle" dominant-baseline="central">3</text>
            <title>1 glad/lib/models/edges.js
2 glad/lib/models/graph.js
3 glad/lib/render/renderBase.js
⬇
edge.js</title>
          </g>
        </g>
        <g id='Counters_containers.js'>
          <g>
            <circle cx="1400" cy="865" r="10" fill="green"/>
            <text x="1400" y="865" fill="white" font-size="10" text-anchor="middle" dominant-baseline="central">2</text>
            <title>containers.js
⬇
1 glad/lib/models/constants.js
2 glad/lib/models/container.js</title>
          </g>
          <g>
            <circle cx="1140" cy="825" r="10" fill="blue"/>
            <text x="1140" y="825" fill="white" font-size="10" text-anchor="middle" dominant-baseline="central">1</text>
            <title>1 glad/lib/models/layer.js
⬇
containers.js</title>
          </g>
        </g>
        <g id='Counters_container.js'>
          <g>
            <circle cx="1250" cy="945" r="10" fill="green"/>
            <text x="1250" y="945" fill="white" font-size="10" text-anchor="middle" dominant-baseline="central">2</text>
            <title>container.js
⬇
1 glad/lib/models/constants.js
2 glad/lib/models/rectangle.js</title>
          </g>
          <g>
            <circle cx="990" cy="905" r="10" fill="blue"/>
            <text x="990" y="905" fill="white" font-size="10" text-anchor="middle" dominant-baseline="central">12</text>
            <title>1 glad/lib/models/containers.js
2 glad/lib/models/edge.js
3 glad/lib/models/edges.js
4 glad/lib/models/graph.js
5 glad/lib/models/layers.js
6 glad/lib/parsers/dotParser.js
7 glad/lib/parsers/jsTsParser.js
8 glad/lib/render/renderAsGrid.js
9 glad/lib/render/renderAsLayers.js
10 glad/lib/render/renderAsPoster.js
11 glad/lib/render/renderBase.js
12 glad/test/test.js
⬇
container.js</title>
          </g>
        </g>
        <g id='Counters_constants.js'>
          <g>
            <circle cx="840" cy="985" r="10" fill="blue"/>
            <text x="840" y="985" fill="white" font-size="10" text-anchor="middle" dominant-baseline="central">14</text>
            <title>1 glad/cli/index.js
2 glad/lib/glad.js
3 glad/lib/models/container.js
4 glad/lib/models/containers.js
5 glad/lib/models/layer.js
6 glad/lib/models/layers.js
7 glad/lib/render/renderAsGrid.js
8 glad/lib/render/renderAsLayers.js
9 glad/lib/render/renderAsPoster.js
10 glad/lib/render/renderBase.js
11 glad/test/test.js
12 glad/test/test_js.js
13 glad/test/test_swift.js
14 glad/test/test_ts.js
⬇
constants.js</title>
          </g>
        </g>
        <g id='Counters_rectangle.js'>
          <g>
            <circle cx="1140" cy="985" r="10" fill="blue"/>
            <text x="1140" y="985" fill="white" font-size="10" text-anchor="middle" dominant-baseline="central">3</text>
            <title>1 glad/lib/models/container.js
2 glad/lib/models/layer.js
3 glad/lib/render/renderBase.js
⬇
rectangle.js</title>
          </g>
        </g>
      </g>
      <g id='Counters_util'>
        <g id='Counters_svg.js'>
          <g>
            <circle cx="1250" cy="1175" r="10" fill="green"/>
            <text x="1250" y="1175" fill="white" font-size="10" text-anchor="middle" dominant-baseline="central">1</text>
            <title>svg.js
⬇
1 glad/lib/util/strings.js</title>
          </g>
          <g>
            <circle cx="990" cy="1135" r="10" fill="blue"/>
            <text x="990" y="1135" fill="white" font-size="10" text-anchor="middle" dominant-baseline="central">1</text>
            <title>1 glad/lib/render/renderBase.js
⬇
svg.js</title>
          </g>
        </g>
        <g id='Counters_strings.js'>
          <g>
            <circle cx="990" cy="1215" r="10" fill="blue"/>
            <text x="990" y="1215" fill="white" font-size="10" text-anchor="middle" dominant-baseline="central">5</text>
            <title>1 glad/lib/models/graph.js
2 glad/lib/parsers/jsTsParser.js
3 glad/lib/parsers/swiftParser.js
4 glad/lib/render/renderBase.js
5 glad/lib/util/svg.js
⬇
strings.js</title>
          </g>
        </g>
      </g>
    </g>
    <g id='Counters_test'>
      <g id='Counters_test.js'>
        <g>
          <circle cx="1082.5" cy="130" r="10" fill="green"/>
          <text x="1082.5" y="130" fill="white" font-size="10" text-anchor="middle" dominant-baseline="central">11</text>
          <title>test.js
⬇
1 glad/lib/glad.js
2 glad/lib/models/constants.js
3 glad/lib/models/container.js
4 glad/lib/models/graph.js
5 glad/lib/render/renderAsGrid.js
6 glad/lib/render/renderAsLayers.js
7 glad/lib/render/renderAsPoster.js
8 glad/test/test_dot.js
9 glad/test/test_js.js
10 glad/test/test_swift.js
11 glad/test/test_ts.js</title>
        </g>
      </g>
      <g id='Counters_test_js.js'>
        <g>
          <circle cx="632.5" cy="210" r="10" fill="green"/>
          <text x="632.5" y="210" fill="white" font-size="10" text-anchor="middle" dominant-baseline="central">2</text>
          <title>test_js.js
⬇
1 glad/lib/glad.js
2 glad/lib/models/constants.js</title>
        </g>
        <g>
          <circle cx="372.5" cy="170" r="10" fill="blue"/>
          <text x="372.5" y="170" fill="white" font-size="10" text-anchor="middle" dominant-baseline="central">1</text>
          <title>1 glad/test/test.js
⬇
test_js.js</title>
        </g>
      </g>
      <g id='Counters_test_swift.js'>
        <g>
          <circle cx="932.5" cy="210" r="10" fill="green"/>
          <text x="932.5" y="210" fill="white" font-size="10" text-anchor="middle" dominant-baseline="central">2</text>
          <title>test_swift.js
⬇
1 glad/lib/glad.js
2 glad/lib/models/constants.js</title>
        </g>
        <g>
          <circle cx="672.5" cy="170" r="10" fill="blue"/>
          <text x="672.5" y="170" fill="white" font-size="10" text-anchor="middle" dominant-baseline="central">1</text>
          <title>1 glad/test/test.js
⬇
test_swift.js</title>
        </g>
      </g>
      <g id='Counters_test_ts.js'>
        <g>
          <circle cx="1232.5" cy="210" r="10" fill="green"/>
          <text x="1232.5" y="210" fill="white" font-size="10" text-anchor="middle" dominant-baseline="central">2</text>
          <title>test_ts.js
⬇
1 glad/lib/glad.js
2 glad/lib/models/constants.js</title>
        </g>
        <g>
          <circle cx="972.5" cy="170" r="10" fill="blue"/>
          <text x="972.5" y="170" fill="white" font-size="10" text-anchor="middle" dominant-baseline="central">1</text>
          <title>1 glad/test/test.js
⬇
test_ts.js</title>
        </g>
      </g>
      <g id='Counters_test_dot.js'>
        <g>
          <circle cx="1532.5" cy="210" r="10" fill="green"/>
          <text x="1532.5" y="210" fill="white" font-size="10" text-anchor="middle" dominant-baseline="central">1</text>
          <title>test_dot.js
⬇
1 glad/lib/glad.js</title>
        </g>
        <g>
          <circle cx="1272.5" cy="170" r="10" fill="blue"/>
          <text x="1272.5" y="170" fill="white" font-size="10" text-anchor="middle" dominant-baseline="central">1</text>
          <title>1 glad/test/test.js
⬇
test_dot.js</title>
        </g>
      </g>
    </g>
    <g id='Counters_cli'>
      <g id='Counters_index.js'>
        <g>
          <circle cx="1867.5" cy="130" r="10" fill="green"/>
          <text x="1867.5" y="130" fill="white" font-size="10" text-anchor="middle" dominant-baseline="central">2</text>
          <title>index.js
⬇
1 glad/lib/glad.js
2 glad/lib/models/constants.js</title>
        </g>
      </g>
    </g>
  </g>
  <g id='Labels_glad'>
    <text class="folderName" x="10" y="10">glad</text>
    <text x="10" y="1370" fill='black' font-size="75%">7 folders, 26 files</text>
    <g id='Labels_lib'>
      <text class="folderName" x="27.5" y="275">lib</text>
      <text x="27.5" y="1335" fill='black' font-size="75%">4 folders, 20 files, 16 incoming, path: .../glad/</text>
      <g id='Labels_render'>
        <text class="folderName" x="45" y="310">render</text>
        <text x="45" y="520" fill='black' font-size="75%">4 files, 7 incoming, 21 outgoing, path: .../glad/lib/</text>
        <g id='Labels_renderAsLayers.js'>
          <text class="nodeName" x="202.5" y="375" font-size="120%">renderAsLayers.js</text>
        </g>
        <g id='Labels_renderAsPoster.js'>
          <text class="nodeName" x="502.5" y="375" font-size="120%">renderAsPoster.js</text>
        </g>
        <g id='Labels_renderAsGrid.js'>
          <text class="nodeName" x="802.5" y="375" font-size="120%">renderAsGrid.js</text>
        </g>
        <g id='Labels_renderBase.js'>
          <text class="nodeName" x="502.5" y="455" font-size="120%">renderBase.js</text>
        </g>
      </g>
      <g id='Labels_parsers'>
        <text class="folderName" x="980" y="310">parsers</text>
        <text x="980" y="440" fill='black' font-size="75%">4 files, 4 incoming, 8 outgoing, path: .../glad/lib/</text>
        <g id='Labels_jsTsParser.js'>
          <text class="nodeName" x="1137.5" y="375" font-size="120%">jsTsParser.js</text>
        </g>
        <g id='Labels_dotParser.js'>
          <text class="nodeName" x="1437.5" y="375" font-size="120%">dotParser.js</text>
        </g>
        <g id='Labels_swiftParser.js'>
          <text class="nodeName" x="1737.5" y="375" font-size="120%">swiftParser.js</text>
        </g>
        <g id='Labels_flutterDartParser.js'>
          <text class="nodeName" x="2037.5" y="375" font-size="120%">flutterDartParser.js</text>
        </g>
      </g>
      <g id='Labels_glad.js'>
        <text class="nodeName" x="1120" y="570" font-size="120%">glad.js</text>
      </g>
      <g id='Labels_models'>
        <text class="folderName" x="812.5" y="620">models</text>
        <text x="812.5" y="1070" fill='black' font-size="75%">9 files, 31 incoming, 1 outgoing, path: .../glad/lib/</text>
        <g id='Labels_graph.js'>
          <text class="nodeName" x="970" y="685" font-size="120%">graph.js</text>
        </g>
        <g id='Labels_layers.js'>
          <text class="nodeName" x="1270" y="685" font-size="120%">layers.js</text>
        </g>
        <g id='Labels_layer.js'>
          <text class="nodeName" x="970" y="765" font-size="120%">layer.js</text>
        </g>
        <g id='Labels_edges.js'>
          <text class="nodeName" x="1270" y="765" font-size="120%">edges.js</text>
        </g>
        <g id='Labels_edge.js'>
          <text class="nodeName" x="970" y="845" font-size="120%">edge.js</text>
        </g>
        <g id='Labels_containers.js'>
          <text class="nodeName" x="1270" y="845" font-size="120%">containers.js</text>
        </g>
        <g id='Labels_container.js'>
          <text class="nodeName" x="1120" y="925" font-size="120%">container.js</text>
        </g>
        <g id='Labels_constants.js'>
          <text class="nodeName" x="970" y="1005" font-size="120%">constants.js</text>
        </g>
        <g id='Labels_rectangle.js'>
          <text class="nodeName" x="1270" y="1005" font-size="120%">rectangle.js</text>
        </g>
      </g>
      <g id='Labels_util'>
        <text class="folderName" x="962.5" y="1090">util</text>
        <text x="962.5" y="1300" fill='black' font-size="75%">2 files, 5 incoming, path: .../glad/lib/</text>
        <g id='Labels_svg.js'>
          <text class="nodeName" x="1120" y="1155" font-size="120%">svg.js</text>
        </g>
        <g id='Labels_strings.js'>
          <text class="nodeName" x="1120" y="1235" font-size="120%">strings.js</text>
        </g>
      </g>
    </g>
    <g id='Labels_test'>
      <text class="folderName" x="345" y="45">test</text>
      <text x="345" y="255" fill='black' font-size="75%">5 files, 14 outgoing, path: .../glad/</text>
      <g id='Labels_test.js'>
        <text class="nodeName" x="952.5" y="110" font-size="120%">test.js</text>
      </g>
      <g id='Labels_test_js.js'>
        <text class="nodeName" x="502.5" y="190" font-size="120%">test_js.js</text>
      </g>
      <g id='Labels_test_swift.js'>
        <text class="nodeName" x="802.5" y="190" font-size="120%">test_swift.js</text>
      </g>
      <g id='Labels_test_ts.js'>
        <text class="nodeName" x="1102.5" y="190" font-size="120%">test_ts.js</text>
      </g>
      <g id='Labels_test_dot.js'>
        <text class="nodeName" x="1402.5" y="190" font-size="120%">test_dot.js</text>
      </g>
    </g>
    <g id='Labels_cli'>
      <text class="folderName" x="1580" y="45">cli</text>
      <text x="1580" y="175" fill='black' font-size="75%">1 file, 2 outgoing, path: .../glad/</text>
      <g id='Labels_index.js'>
        <text class="nodeName" x="1737.5" y="110" font-size="120%">index.js</text>
      </g>
    </g>
  </g>
  <g id='Layers_Text'>
    <g id='Layer:0 of glad'>
      <text x="2212.5" y="45" class='layerText' dominant-baseline="hanging" text-anchor="end" >1 </text>
    </g>
    <g id='Layer:0 of test'>
      <text x="1542.5" y="80" class='layerText' dominant-baseline="hanging" text-anchor="end" >1 </text>
    </g>
    <g id='Layer:1 of test'>
      <text x="1542.5" y="160" class='layerText' dominant-baseline="hanging" text-anchor="end" >2 </text>
    </g>
    <g id='Layer:0 of cli'>
      <text x="1877.5" y="80" class='layerText' dominant-baseline="hanging" text-anchor="end" >1 </text>
    </g>
    <g id='Layer:1 of glad'>
      <text x="2212.5" y="275" class='layerText' dominant-baseline="hanging" text-anchor="end" >2 </text>
    </g>
    <g id='Layer:0 of lib'>
      <text x="2195" y="310" class='layerText' dominant-baseline="hanging" text-anchor="end" >1 </text>
    </g>
    <g id='Layer:0 of render'>
      <text x="942.5" y="345" class='layerText' dominant-baseline="hanging" text-anchor="end" >1 </text>
    </g>
    <g id='Layer:1 of render'>
      <text x="942.5" y="425" class='layerText' dominant-baseline="hanging" text-anchor="end" >2 </text>
    </g>
    <g id='Layer:0 of parsers'>
      <text x="2177.5" y="345" class='layerText' dominant-baseline="hanging" text-anchor="end" >1 </text>
    </g>
    <g id='Layer:1 of lib'>
      <text x="2195" y="540" class='layerText' dominant-baseline="hanging" text-anchor="end" >2 </text>
    </g>
    <g id='Layer:2 of lib'>
      <text x="2195" y="620" class='layerText' dominant-baseline="hanging" text-anchor="end" >3 </text>
    </g>
    <g id='Layer:0 of models'>
      <text x="1410" y="655" class='layerText' dominant-baseline="hanging" text-anchor="end" >1 </text>
    </g>
    <g id='Layer:1 of models'>
      <text x="1410" y="735" class='layerText' dominant-baseline="hanging" text-anchor="end" >2 </text>
    </g>
    <g id='Layer:2 of models'>
      <text x="1410" y="815" class='layerText' dominant-baseline="hanging" text-anchor="end" >3 </text>
    </g>
    <g id='Layer:3 of models'>
      <text x="1410" y="895" class='layerText' dominant-baseline="hanging" text-anchor="end" >4 </text>
    </g>
    <g id='Layer:4 of models'>
      <text x="1410" y="975" class='layerText' dominant-baseline="hanging" text-anchor="end" >5 </text>
    </g>
    <g id='Layer:3 of lib'>
      <text x="2195" y="1090" class='layerText' dominant-baseline="hanging" text-anchor="end" >4 </text>
    </g>
    <g id='Layer:0 of util'>
      <text x="1260" y="1125" class='layerText' dominant-baseline="hanging" text-anchor="end" >1 </text>
    </g>
    <g id='Layer:1 of util'>
      <text x="1260" y="1205" class='layerText' dominant-baseline="hanging" text-anchor="end" >2 </text>
    </g>
  </g>
</svg>