<?xml version="1.0" standalone="no"?>
<svg width="1305" height="1380" xmlns="http://www.w3.org/2000/svg" font-family="Arial, Helvetica, sans-serif">
  <style>
    .layerRectangle {
      stroke: black;
      stroke-dasharray: 5,5;
      fill: url('#layers')
    }
    .layerText {
      fill: purple;
      font-size: 150%;
      filter: url(#outlineWhite);
    }
    .nodeFolder {
      fill: #aaaaaa;
      opacity: 0.3;
      stroke: whitesmoke;
    }
    .nodeFile {
      fill: #ffffff;
      opacity: 0.9;
      stroke: gray;
    }
    .nodeFileOrphan {
      fill: #ff6b6b !important;
      opacity: 0.9;
      stroke: gray;
    }
    .folderName {
      font-size: 180%;
      fill : white;
      font-weight: bolder;
      text-anchor: start;
      letter-spacing : 1px;
      dominant-baseline: hanging;
      filter: url(#shadow);
    }
    .nodeName {
      fill : black;
      font-weight: bold;
      text-anchor: middle;
      dominant-baseline: central;
      filter: url(#outlineWhite);
    }
    .line {
      fill : none;
      stroke: #377E22;
      stroke-width: 3;
      opacity: 0.5;
    }
    .line:hover {
      stroke-width: 6;
      opacity: 1;
    }
    .lineOrange {
      fill : none;
      stroke: #F09235;
      stroke-width: 8;
      opacity: 0.5;
    }
    .lineOrange:hover {
      stroke-width: 13;
      opacity: 1;
    }
    .lineRed {
      fill : none;
      stroke: #EB4132;
      stroke-width: 8;
      opacity: 0.5;
    }
    .lineRed:hover {
      stroke-width: 13;
      opacity: 1;
    }
</style>
  <defs id='idSvgDef'>
    <linearGradient id="layers" gradientTransform="rotate(90)">
      <stop offset="0%" stop-color="#691872" stop-opacity="0.1"/>
      <stop offset="100%" stop-color="#691872" stop-opacity="0.3" />
    </linearGradient>
    <filter id="shadow">
      <feGaussianBlur in="SourceAlpha" stdDeviation="2"/>
      <feOffset dx="1" dy="1" result="offsetblur"/>
      <feFlood flood-color="black"/>
      <feComposite in2="offsetblur" operator="in"/>
      <feMerge>
        <feMergeNode/>
        <feMergeNode in="SourceGraphic"/>
      </feMerge>
    </filter>
    <filter id="outlineWhite">
      <feMorphology in="SourceAlpha" result="DILATED" operator="dilate" radius="2"/>
      <feFlood flood-color="white" flood-opacity="0.5" result="WHITE"/>
      <feComposite in="WHITE" in2="DILATED" operator="in" result="OUTLINE"/>
      <feMerge>
        <feMergeNode in="OUTLINE" />
        <feMergeNode in="SourceGraphic" />
      </feMerge>
    </filter>
    <filter id="outlineBlack">
      <feMorphology in="SourceAlpha" result="DILATED" operator="dilate" radius="2"/>
      <feFlood flood-color="black" flood-opacity="0.5" result="BLACK"/>
      <feComposite in="BLACK" in2="DILATED" operator="in" result="OUTLINE"/>
      <feMerge>
        <feMergeNode in="OUTLINE"/>
        <feMergeNode in="SourceGraphic"/>
      </feMerge>
    </filter>
    <marker id='lineEnd' viewBox= '0 -5 30 10' refX='12' orient='auto'>
      <path d='M0,-16L32,0L0,16' fill='#3058FF' opacity="0.67"/>
    </marker>
    <marker id='lineStart' viewBox= '0 -4 8 8' refX='4' orient='auto'>
      <circle cx='4' r='4' fill='#377E22'/>
    </marker>
  </defs>
  <rect width="100%" height="100%" fill="white"/>
  <g id='Layers_Rects'>
    <g id='Layer:0 of glad'>
      <rect x="17.5" y="35" width="1270" height="230" rx="2" ry="2" class="layerRectangle" id='glad 0'/>
    </g>
    <g id='Layer:0 of test'>
      <rect x="35" y="70" width="900" height="80" rx="2" ry="2" class="layerRectangle" id='test 0'/>
    </g>
    <g id='Layer:1 of test'>
      <rect x="35" y="150" width="900" height="80" rx="2" ry="2" class="layerRectangle" id='test 1'/>
    </g>
    <g id='Layer:0 of cli'>
      <rect x="970" y="70" width="300" height="80" rx="2" ry="2" class="layerRectangle" id='cli 0'/>
    </g>
    <g id='Layer:1 of glad'>
      <rect x="17.5" y="265" width="1270" height="1080" rx="2" ry="2" class="layerRectangle" id='glad 1'/>
    </g>
    <g id='Layer:0 of lib'>
      <rect x="185" y="300" width="935" height="80" rx="2" ry="2" class="layerRectangle" id='lib 0'/>
    </g>
    <g id='Layer:1 of lib'>
      <rect x="185" y="380" width="935" height="230" rx="2" ry="2" class="layerRectangle" id='lib 1'/>
    </g>
    <g id='Layer:0 of render'>
      <rect x="202.5" y="415" width="900" height="80" rx="2" ry="2" class="layerRectangle" id='render 0'/>
    </g>
    <g id='Layer:1 of render'>
      <rect x="202.5" y="495" width="900" height="80" rx="2" ry="2" class="layerRectangle" id='render 1'/>
    </g>
    <g id='Layer:2 of lib'>
      <rect x="185" y="610" width="935" height="470" rx="2" ry="2" class="layerRectangle" id='lib 2'/>
    </g>
    <g id='Layer:0 of models'>
      <rect x="352.5" y="645" width="600" height="80" rx="2" ry="2" class="layerRectangle" id='models 0'/>
    </g>
    <g id='Layer:1 of models'>
      <rect x="352.5" y="725" width="600" height="80" rx="2" ry="2" class="layerRectangle" id='models 1'/>
    </g>
    <g id='Layer:2 of models'>
      <rect x="352.5" y="805" width="600" height="80" rx="2" ry="2" class="layerRectangle" id='models 2'/>
    </g>
    <g id='Layer:3 of models'>
      <rect x="352.5" y="885" width="600" height="80" rx="2" ry="2" class="layerRectangle" id='models 3'/>
    </g>
    <g id='Layer:4 of models'>
      <rect x="352.5" y="965" width="600" height="80" rx="2" ry="2" class="layerRectangle" id='models 4'/>
    </g>
    <g id='Layer:3 of lib'>
      <rect x="185" y="1080" width="935" height="230" rx="2" ry="2" class="layerRectangle" id='lib 3'/>
    </g>
    <g id='Layer:0 of util'>
      <rect x="502.5" y="1115" width="300" height="80" rx="2" ry="2" class="layerRectangle" id='util 0'/>
    </g>
    <g id='Layer:1 of util'>
      <rect x="502.5" y="1195" width="300" height="80" rx="2" ry="2" class="layerRectangle" id='util 1'/>
    </g>
  </g>
  <g id='Node_glad'>
    <rect x="4" y="4" width="1297" height="1372" rx="2" ry="2" class="nodeFolder"/>
    <g id='Node_lib'>
      <rect x="171.5" y="269" width="962" height="1072" rx="2" ry="2" class="nodeFolder"/>
      <g id='Node_glad.js'>
        <rect x="506.5" y="304" width="292" height="72" rx="8" ry="8" class="nodeFile"/>
      </g>
      <g id='Node_render'>
        <rect x="189" y="384" width="927" height="222" rx="2" ry="2" class="nodeFolder"/>
        <g id='Node_renderAsLayers.js'>
          <rect x="206.5" y="419" width="292" height="72" rx="8" ry="8" class="nodeFile"/>
        </g>
        <g id='Node_renderAsPoster.js'>
          <rect x="506.5" y="419" width="292" height="72" rx="8" ry="8" class="nodeFile"/>
        </g>
        <g id='Node_renderAsGrid.js'>
          <rect x="806.5" y="419" width="292" height="72" rx="8" ry="8" class="nodeFile"/>
        </g>
        <g id='Node_renderBase.js'>
          <rect x="506.5" y="499" width="292" height="72" rx="8" ry="8" class="nodeFile"/>
        </g>
      </g>
      <g id='Node_models'>
        <rect x="339" y="614" width="627" height="462" rx="2" ry="2" class="nodeFolder"/>
        <g id='Node_graph.js'>
          <rect x="356.5" y="649" width="292" height="72" rx="8" ry="8" class="nodeFile"/>
        </g>
        <g id='Node_layers.js'>
          <rect x="656.5" y="649" width="292" height="72" rx="8" ry="8" class="nodeFile"/>
        </g>
        <g id='Node_layer.js'>
          <rect x="356.5" y="729" width="292" height="72" rx="8" ry="8" class="nodeFile"/>
        </g>
        <g id='Node_edges.js'>
          <rect x="656.5" y="729" width="292" height="72" rx="8" ry="8" class="nodeFile"/>
        </g>
        <g id='Node_edge.js'>
          <rect x="356.5" y="809" width="292" height="72" rx="8" ry="8" class="nodeFile"/>
        </g>
        <g id='Node_containers.js'>
          <rect x="656.5" y="809" width="292" height="72" rx="8" ry="8" class="nodeFile"/>
        </g>
        <g id='Node_container.js'>
          <rect x="506.5" y="889" width="292" height="72" rx="8" ry="8" class="nodeFile"/>
        </g>
        <g id='Node_constants.js'>
          <rect x="356.5" y="969" width="292" height="72" rx="8" ry="8" class="nodeFile"/>
        </g>
        <g id='Node_rectangle.js'>
          <rect x="656.5" y="969" width="292" height="72" rx="8" ry="8" class="nodeFile"/>
        </g>
      </g>
      <g id='Node_util'>
        <rect x="489" y="1084" width="327" height="222" rx="2" ry="2" class="nodeFolder"/>
        <g id='Node_svg.js'>
          <rect x="506.5" y="1119" width="292" height="72" rx="8" ry="8" class="nodeFile"/>
        </g>
        <g id='Node_strings.js'>
          <rect x="506.5" y="1199" width="292" height="72" rx="8" ry="8" class="nodeFile"/>
        </g>
      </g>
    </g>
    <g id='Node_test'>
      <rect x="21.5" y="39" width="927" height="222" rx="2" ry="2" class="nodeFolder"/>
      <g id='Node_test.js'>
        <rect x="339" y="74" width="292" height="72" rx="8" ry="8" class="nodeFile"/>
      </g>
      <g id='Node_test_js.js'>
        <rect x="39" y="154" width="292" height="72" rx="8" ry="8" class="nodeFile"/>
      </g>
      <g id='Node_test_swift.js'>
        <rect x="339" y="154" width="292" height="72" rx="8" ry="8" class="nodeFile"/>
      </g>
      <g id='Node_test_ts.js'>
        <rect x="639" y="154" width="292" height="72" rx="8" ry="8" class="nodeFile"/>
      </g>
    </g>
    <g id='Node_cli'>
      <rect x="956.5" y="39" width="327" height="142" rx="2" ry="2" class="nodeFolder"/>
      <g id='Node_index.js'>
        <rect x="974" y="74" width="292" height="72" rx="8" ry="8" class="nodeFile"/>
      </g>
    </g>
  </g>
  <g id='Edges'>
    <path d="M782.5 945 C 792.5 965,362.5 965, 372.5 985" fill="none" class="line">
      <title>container.js
⬇
constants.js</title>
    </path>
    <path d="M782.5 945 C 792.5 965,662.5 965, 672.5 985" fill="none" class="line">
      <title>container.js
⬇
rectangle.js</title>
    </path>
    <path d="M932.5 865 C 942.5 925,362.5 925, 372.5 985" fill="none" class="line">
      <title>containers.js
⬇
constants.js</title>
    </path>
    <path d="M932.5 865 C 942.5 885,512.5 885, 522.5 905" fill="none" class="line">
      <title>containers.js
⬇
container.js</title>
    </path>
    <path d="M632.5 865 C 642.5 885,512.5 885, 522.5 905" fill="none" class="line">
      <title>edge.js
⬇
container.js</title>
    </path>
    <path d="M932.5 785 C 942.5 845,512.5 845, 522.5 905" fill="none" class="line">
      <title>edges.js
⬇
container.js</title>
    </path>
    <path d="M932.5 785 C 942.5 805,362.5 805, 372.5 825" fill="none" class="line">
      <title>edges.js
⬇
edge.js</title>
    </path>
    <path d="M782.5 360 C 802.5 672,352.5 673, 372.5 985" fill="none" class="line">
      <title>glad.js
⬇
constants.js</title>
    </path>
    <path d="M782.5 360 C 800.5 632,504.5 633, 522.5 905" fill="none" class="line">
      <title>glad.js
⬇
container.js</title>
    </path>
    <path d="M782.5 360 C 792.5 512,362.5 513, 372.5 665" fill="none" class="line">
      <title>glad.js
⬇
graph.js</title>
    </path>
    <path d="M782.5 360 C 792.5 512,662.5 513, 672.5 665" fill="none" class="line">
      <title>glad.js
⬇
layers.js</title>
    </path>
    <path d="M782.5 360 C 792.5 397,812.5 398, 822.5 435" fill="none" class="line">
      <title>glad.js
⬇
renderAsGrid.js</title>
    </path>
    <path d="M782.5 360 C 792.5 397,212.5 398, 222.5 435" fill="none" class="line">
      <title>glad.js
⬇
renderAsLayers.js</title>
    </path>
    <path d="M782.5 360 C 792.5 397,512.5 398, 522.5 435" fill="none" class="line">
      <title>glad.js
⬇
renderAsPoster.js</title>
    </path>
    <path d="M782.5 360 C 792.5 437,512.5 438, 522.5 515" fill="none" class="line">
      <title>glad.js
⬇
renderBase.js</title>
    </path>
    <path d="M782.5 360 C 810.5 787,494.5 788, 522.5 1215" fill="none" class="line">
      <title>glad.js
⬇
strings.js</title>
    </path>
    <path d="M632.5 705 C 642.5 805,512.5 805, 522.5 905" fill="none" class="line">
      <title>graph.js
⬇
container.js</title>
    </path>
    <path d="M632.5 705 C 642.5 765,362.5 765, 372.5 825" fill="none" class="line">
      <title>graph.js
⬇
edge.js</title>
    </path>
    <path d="M632.5 705 C 642.5 725,662.5 725, 672.5 745" fill="none" class="line">
      <title>graph.js
⬇
edges.js</title>
    </path>
    <path d="M632.5 705 C 649.5 960,505.5 960, 522.5 1215" fill="none" class="line">
      <title>graph.js
⬇
strings.js</title>
    </path>
    <path d="M1250 130 C 1278 557,344.5 558, 372.5 985" fill="none" class="line">
      <title>index.js
⬇
constants.js</title>
    </path>
    <path d="M1250 130 C 1260 225,512.5 225, 522.5 320" fill="none" class="line">
      <title>index.js
⬇
glad.js</title>
    </path>
    <path d="M632.5 785 C 642.5 885,362.5 885, 372.5 985" fill="none" class="line">
      <title>layer.js
⬇
constants.js</title>
    </path>
    <path d="M632.5 785 C 642.5 805,662.5 805, 672.5 825" fill="none" class="line">
      <title>layer.js
⬇
containers.js</title>
    </path>
    <path d="M632.5 785 C 642.5 885,662.5 885, 672.5 985" fill="none" class="line">
      <title>layer.js
⬇
rectangle.js</title>
    </path>
    <path d="M932.5 705 C 942.5 845,362.5 845, 372.5 985" fill="none" class="line">
      <title>layers.js
⬇
constants.js</title>
    </path>
    <path d="M932.5 705 C 942.5 805,512.5 805, 522.5 905" fill="none" class="line">
      <title>layers.js
⬇
container.js</title>
    </path>
    <path d="M932.5 705 C 942.5 725,362.5 725, 372.5 745" fill="none" class="line">
      <title>layers.js
⬇
layer.js</title>
    </path>
    <path d="M1082.5 475 C 1099.5 730,355.5 730, 372.5 985" fill="none" class="line">
      <title>renderAsGrid.js
⬇
constants.js</title>
    </path>
    <path d="M1082.5 475 C 1096.5 690,508.5 690, 522.5 905" fill="none" class="line">
      <title>renderAsGrid.js
⬇
container.js</title>
    </path>
    <path d="M1082.5 475 C 1092.5 570,362.5 570, 372.5 665" fill="none" class="line">
      <title>renderAsGrid.js
⬇
graph.js</title>
    </path>
    <path d="M1082.5 475 C 1092.5 495,512.5 495, 522.5 515" fill="none" class="line">
      <title>renderAsGrid.js
⬇
renderBase.js</title>
    </path>
    <path d="M482.5 475 C 499.5 730,355.5 730, 372.5 985" fill="none" class="line">
      <title>renderAsLayers.js
⬇
constants.js</title>
    </path>
    <path d="M482.5 475 C 496.5 690,508.5 690, 522.5 905" fill="none" class="line">
      <title>renderAsLayers.js
⬇
container.js</title>
    </path>
    <path d="M482.5 475 C 492.5 570,362.5 570, 372.5 665" fill="none" class="line">
      <title>renderAsLayers.js
⬇
graph.js</title>
    </path>
    <path d="M482.5 475 C 492.5 570,662.5 570, 672.5 665" fill="none" class="line">
      <title>renderAsLayers.js
⬇
layers.js</title>
    </path>
    <path d="M482.5 475 C 492.5 495,512.5 495, 522.5 515" fill="none" class="line">
      <title>renderAsLayers.js
⬇
renderBase.js</title>
    </path>
    <path d="M782.5 475 C 799.5 730,355.5 730, 372.5 985" fill="none" class="line">
      <title>renderAsPoster.js
⬇
constants.js</title>
    </path>
    <path d="M782.5 475 C 796.5 690,508.5 690, 522.5 905" fill="none" class="line">
      <title>renderAsPoster.js
⬇
container.js</title>
    </path>
    <path d="M782.5 475 C 792.5 570,362.5 570, 372.5 665" fill="none" class="line">
      <title>renderAsPoster.js
⬇
graph.js</title>
    </path>
    <path d="M782.5 475 C 792.5 570,662.5 570, 672.5 665" fill="none" class="line">
      <title>renderAsPoster.js
⬇
layers.js</title>
    </path>
    <path d="M782.5 475 C 792.5 495,512.5 495, 522.5 515" fill="none" class="line">
      <title>renderAsPoster.js
⬇
renderBase.js</title>
    </path>
    <path d="M782.5 555 C 796.5 770,358.5 770, 372.5 985" fill="none" class="line">
      <title>renderBase.js
⬇
constants.js</title>
    </path>
    <path d="M782.5 555 C 793.5 730,511.5 730, 522.5 905" fill="none" class="line">
      <title>renderBase.js
⬇
container.js</title>
    </path>
    <path d="M782.5 555 C 792.5 690,362.5 690, 372.5 825" fill="none" class="line">
      <title>renderBase.js
⬇
edge.js</title>
    </path>
    <path d="M782.5 555 C 792.5 650,662.5 650, 672.5 745" fill="none" class="line">
      <title>renderBase.js
⬇
edges.js</title>
    </path>
    <path d="M782.5 555 C 792.5 610,362.5 610, 372.5 665" fill="none" class="line">
      <title>renderBase.js
⬇
graph.js</title>
    </path>
    <path d="M782.5 555 C 792.5 650,362.5 650, 372.5 745" fill="none" class="line">
      <title>renderBase.js
⬇
layer.js</title>
    </path>
    <path d="M782.5 555 C 792.5 610,662.5 610, 672.5 665" fill="none" class="line">
      <title>renderBase.js
⬇
layers.js</title>
    </path>
    <path d="M782.5 555 C 796.5 770,658.5 770, 672.5 985" fill="none" class="line">
      <title>renderBase.js
⬇
rectangle.js</title>
    </path>
    <path d="M782.5 555 C 804.5 885,500.5 885, 522.5 1215" fill="none" class="line">
      <title>renderBase.js
⬇
strings.js</title>
    </path>
    <path d="M782.5 555 C 801.5 845,503.5 845, 522.5 1135" fill="none" class="line">
      <title>renderBase.js
⬇
svg.js</title>
    </path>
    <path d="M782.5 1175 C 792.5 1195,512.5 1195, 522.5 1215" fill="none" class="line">
      <title>svg.js
⬇
strings.js</title>
    </path>
    <path d="M315 210 C 340 597,347.5 598, 372.5 985" fill="none" class="line">
      <title>test_js.js
⬇
constants.js</title>
    </path>
    <path d="M315 210 C 325 265,512.5 265, 522.5 320" fill="none" class="line">
      <title>test_js.js
⬇
glad.js</title>
    </path>
    <path d="M615 210 C 640 597,347.5 598, 372.5 985" fill="none" class="line">
      <title>test_swift.js
⬇
constants.js</title>
    </path>
    <path d="M615 210 C 625 265,512.5 265, 522.5 320" fill="none" class="line">
      <title>test_swift.js
⬇
glad.js</title>
    </path>
    <path d="M915 210 C 940 597,347.5 598, 372.5 985" fill="none" class="line">
      <title>test_ts.js
⬇
constants.js</title>
    </path>
    <path d="M915 210 C 925 265,512.5 265, 522.5 320" fill="none" class="line">
      <title>test_ts.js
⬇
glad.js</title>
    </path>
    <path d="M615 130 C 643 557,344.5 558, 372.5 985" fill="none" class="line">
      <title>test.js
⬇
constants.js</title>
    </path>
    <path d="M615 130 C 640 517,497.5 518, 522.5 905" fill="none" class="line">
      <title>test.js
⬇
container.js</title>
    </path>
    <path d="M615 130 C 625 225,512.5 225, 522.5 320" fill="none" class="line">
      <title>test.js
⬇
glad.js</title>
    </path>
    <path d="M615 130 C 632 397,355.5 398, 372.5 665" fill="none" class="line">
      <title>test.js
⬇
graph.js</title>
    </path>
    <path d="M615 130 C 625 282,812.5 283, 822.5 435" fill="none" class="line">
      <title>test.js
⬇
renderAsGrid.js</title>
    </path>
    <path d="M615 130 C 625 282,212.5 283, 222.5 435" fill="none" class="line">
      <title>test.js
⬇
renderAsLayers.js</title>
    </path>
    <path d="M615 130 C 625 282,512.5 283, 522.5 435" fill="none" class="line">
      <title>test.js
⬇
renderAsPoster.js</title>
    </path>
    <path d="M615 130 C 625 150,45 150, 55 170" fill="none" class="line">
      <title>test.js
⬇
test_js.js</title>
    </path>
    <path d="M615 130 C 625 150,345 150, 355 170" fill="none" class="line">
      <title>test.js
⬇
test_swift.js</title>
    </path>
    <path d="M615 130 C 625 150,645 150, 655 170" fill="none" class="line">
      <title>test.js
⬇
test_ts.js</title>
    </path>
  </g>
  <g id='Counters_glad'>
    <g id='Counters_lib'>
      <g id='Counters_glad.js'>
        <g>
          <circle cx="782.5" cy="360" r="10" fill="green"/>
          <text x="782.5" y="360" fill="white" font-size="10" text-anchor="middle" dominant-baseline="central">9</text>
          <title>glad.js
⬇
1 glad/lib/models/constants.js
2 glad/lib/models/container.js
3 glad/lib/models/graph.js
4 glad/lib/models/layers.js
5 glad/lib/render/renderAsGrid.js
6 glad/lib/render/renderAsLayers.js
7 glad/lib/render/renderAsPoster.js
8 glad/lib/render/renderBase.js
9 glad/lib/util/strings.js</title>
        </g>
        <g>
          <circle cx="522.5" cy="320" r="10" fill="blue"/>
          <text x="522.5" y="320" fill="white" font-size="10" text-anchor="middle" dominant-baseline="central">5</text>
          <title>1 glad/cli/index.js
2 glad/test/test.js
3 glad/test/test_js.js
4 glad/test/test_swift.js
5 glad/test/test_ts.js
⬇
glad.js</title>
        </g>
      </g>
      <g id='Counters_render'>
        <g id='Counters_renderAsLayers.js'>
          <g>
            <circle cx="482.5" cy="475" r="10" fill="green"/>
            <text x="482.5" y="475" fill="white" font-size="10" text-anchor="middle" dominant-baseline="central">5</text>
            <title>renderAsLayers.js
⬇
1 glad/lib/models/constants.js
2 glad/lib/models/container.js
3 glad/lib/models/graph.js
4 glad/lib/models/layers.js
5 glad/lib/render/renderBase.js</title>
          </g>
          <g>
            <circle cx="222.5" cy="435" r="10" fill="blue"/>
            <text x="222.5" y="435" fill="white" font-size="10" text-anchor="middle" dominant-baseline="central">2</text>
            <title>1 glad/lib/glad.js
2 glad/test/test.js
⬇
renderAsLayers.js</title>
          </g>
        </g>
        <g id='Counters_renderAsPoster.js'>
          <g>
            <circle cx="782.5" cy="475" r="10" fill="green"/>
            <text x="782.5" y="475" fill="white" font-size="10" text-anchor="middle" dominant-baseline="central">5</text>
            <title>renderAsPoster.js
⬇
1 glad/lib/models/constants.js
2 glad/lib/models/container.js
3 glad/lib/models/graph.js
4 glad/lib/models/layers.js
5 glad/lib/render/renderBase.js</title>
          </g>
          <g>
            <circle cx="522.5" cy="435" r="10" fill="blue"/>
            <text x="522.5" y="435" fill="white" font-size="10" text-anchor="middle" dominant-baseline="central">2</text>
            <title>1 glad/lib/glad.js
2 glad/test/test.js
⬇
renderAsPoster.js</title>
          </g>
        </g>
        <g id='Counters_renderAsGrid.js'>
          <g>
            <circle cx="1082.5" cy="475" r="10" fill="green"/>
            <text x="1082.5" y="475" fill="white" font-size="10" text-anchor="middle" dominant-baseline="central">4</text>
            <title>renderAsGrid.js
⬇
1 glad/lib/models/constants.js
2 glad/lib/models/container.js
3 glad/lib/models/graph.js
4 glad/lib/render/renderBase.js</title>
          </g>
          <g>
            <circle cx="822.5" cy="435" r="10" fill="blue"/>
            <text x="822.5" y="435" fill="white" font-size="10" text-anchor="middle" dominant-baseline="central">2</text>
            <title>1 glad/lib/glad.js
2 glad/test/test.js
⬇
renderAsGrid.js</title>
          </g>
        </g>
        <g id='Counters_renderBase.js'>
          <g>
            <circle cx="782.5" cy="555" r="10" fill="green"/>
            <text x="782.5" y="555" fill="white" font-size="10" text-anchor="middle" dominant-baseline="central">10</text>
            <title>renderBase.js
⬇
1 glad/lib/models/constants.js
2 glad/lib/models/container.js
3 glad/lib/models/edge.js
4 glad/lib/models/edges.js
5 glad/lib/models/graph.js
6 glad/lib/models/layer.js
7 glad/lib/models/layers.js
8 glad/lib/models/rectangle.js
9 glad/lib/util/strings.js
10 glad/lib/util/svg.js</title>
          </g>
          <g>
            <circle cx="522.5" cy="515" r="10" fill="blue"/>
            <text x="522.5" y="515" fill="white" font-size="10" text-anchor="middle" dominant-baseline="central">4</text>
            <title>1 glad/lib/glad.js
2 glad/lib/render/renderAsGrid.js
3 glad/lib/render/renderAsLayers.js
4 glad/lib/render/renderAsPoster.js
⬇
renderBase.js</title>
          </g>
        </g>
      </g>
      <g id='Counters_models'>
        <g id='Counters_graph.js'>
          <g>
            <circle cx="632.5" cy="705" r="10" fill="green"/>
            <text x="632.5" y="705" fill="white" font-size="10" text-anchor="middle" dominant-baseline="central">4</text>
            <title>graph.js
⬇
1 glad/lib/models/container.js
2 glad/lib/models/edge.js
3 glad/lib/models/edges.js
4 glad/lib/util/strings.js</title>
          </g>
          <g>
            <circle cx="372.5" cy="665" r="10" fill="blue"/>
            <text x="372.5" y="665" fill="white" font-size="10" text-anchor="middle" dominant-baseline="central">6</text>
            <title>1 glad/lib/glad.js
2 glad/lib/render/renderAsGrid.js
3 glad/lib/render/renderAsLayers.js
4 glad/lib/render/renderAsPoster.js
5 glad/lib/render/renderBase.js
6 glad/test/test.js
⬇
graph.js</title>
          </g>
        </g>
        <g id='Counters_layers.js'>
          <g>
            <circle cx="932.5" cy="705" r="10" fill="green"/>
            <text x="932.5" y="705" fill="white" font-size="10" text-anchor="middle" dominant-baseline="central">3</text>
            <title>layers.js
⬇
1 glad/lib/models/constants.js
2 glad/lib/models/container.js
3 glad/lib/models/layer.js</title>
          </g>
          <g>
            <circle cx="672.5" cy="665" r="10" fill="blue"/>
            <text x="672.5" y="665" fill="white" font-size="10" text-anchor="middle" dominant-baseline="central">4</text>
            <title>1 glad/lib/glad.js
2 glad/lib/render/renderAsLayers.js
3 glad/lib/render/renderAsPoster.js
4 glad/lib/render/renderBase.js
⬇
layers.js</title>
          </g>
        </g>
        <g id='Counters_layer.js'>
          <g>
            <circle cx="632.5" cy="785" r="10" fill="green"/>
            <text x="632.5" y="785" fill="white" font-size="10" text-anchor="middle" dominant-baseline="central">3</text>
            <title>layer.js
⬇
1 glad/lib/models/constants.js
2 glad/lib/models/containers.js
3 glad/lib/models/rectangle.js</title>
          </g>
          <g>
            <circle cx="372.5" cy="745" r="10" fill="blue"/>
            <text x="372.5" y="745" fill="white" font-size="10" text-anchor="middle" dominant-baseline="central">2</text>
            <title>1 glad/lib/models/layers.js
2 glad/lib/render/renderBase.js
⬇
layer.js</title>
          </g>
        </g>
        <g id='Counters_edges.js'>
          <g>
            <circle cx="932.5" cy="785" r="10" fill="green"/>
            <text x="932.5" y="785" fill="white" font-size="10" text-anchor="middle" dominant-baseline="central">2</text>
            <title>edges.js
⬇
1 glad/lib/models/container.js
2 glad/lib/models/edge.js</title>
          </g>
          <g>
            <circle cx="672.5" cy="745" r="10" fill="blue"/>
            <text x="672.5" y="745" fill="white" font-size="10" text-anchor="middle" dominant-baseline="central">2</text>
            <title>1 glad/lib/models/graph.js
2 glad/lib/render/renderBase.js
⬇
edges.js</title>
          </g>
        </g>
        <g id='Counters_edge.js'>
          <g>
            <circle cx="632.5" cy="865" r="10" fill="green"/>
            <text x="632.5" y="865" fill="white" font-size="10" text-anchor="middle" dominant-baseline="central">1</text>
            <title>edge.js
⬇
1 glad/lib/models/container.js</title>
          </g>
          <g>
            <circle cx="372.5" cy="825" r="10" fill="blue"/>
            <text x="372.5" y="825" fill="white" font-size="10" text-anchor="middle" dominant-baseline="central">3</text>
            <title>1 glad/lib/models/edges.js
2 glad/lib/models/graph.js
3 glad/lib/render/renderBase.js
⬇
edge.js</title>
          </g>
        </g>
        <g id='Counters_containers.js'>
          <g>
            <circle cx="932.5" cy="865" r="10" fill="green"/>
            <text x="932.5" y="865" fill="white" font-size="10" text-anchor="middle" dominant-baseline="central">2</text>
            <title>containers.js
⬇
1 glad/lib/models/constants.js
2 glad/lib/models/container.js</title>
          </g>
          <g>
            <circle cx="672.5" cy="825" r="10" fill="blue"/>
            <text x="672.5" y="825" fill="white" font-size="10" text-anchor="middle" dominant-baseline="central">1</text>
            <title>1 glad/lib/models/layer.js
⬇
containers.js</title>
          </g>
        </g>
        <g id='Counters_container.js'>
          <g>
            <circle cx="782.5" cy="945" r="10" fill="green"/>
            <text x="782.5" y="945" fill="white" font-size="10" text-anchor="middle" dominant-baseline="central">2</text>
            <title>container.js
⬇
1 glad/lib/models/constants.js
2 glad/lib/models/rectangle.js</title>
          </g>
          <g>
            <circle cx="522.5" cy="905" r="10" fill="blue"/>
            <text x="522.5" y="905" fill="white" font-size="10" text-anchor="middle" dominant-baseline="central">11</text>
            <title>1 glad/lib/glad.js
2 glad/lib/models/containers.js
3 glad/lib/models/edge.js
4 glad/lib/models/edges.js
5 glad/lib/models/graph.js
6 glad/lib/models/layers.js
7 glad/lib/render/renderAsGrid.js
8 glad/lib/render/renderAsLayers.js
9 glad/lib/render/renderAsPoster.js
10 glad/lib/render/renderBase.js
11 glad/test/test.js
⬇
container.js</title>
          </g>
        </g>
        <g id='Counters_constants.js'>
          <g>
            <circle cx="372.5" cy="985" r="10" fill="blue"/>
            <text x="372.5" y="985" fill="white" font-size="10" text-anchor="middle" dominant-baseline="central">14</text>
            <title>1 glad/cli/index.js
2 glad/lib/glad.js
3 glad/lib/models/container.js
4 glad/lib/models/containers.js
5 glad/lib/models/layer.js
6 glad/lib/models/layers.js
7 glad/lib/render/renderAsGrid.js
8 glad/lib/render/renderAsLayers.js
9 glad/lib/render/renderAsPoster.js
10 glad/lib/render/renderBase.js
11 glad/test/test.js
12 glad/test/test_js.js
13 glad/test/test_swift.js
14 glad/test/test_ts.js
⬇
constants.js</title>
          </g>
        </g>
        <g id='Counters_rectangle.js'>
          <g>
            <circle cx="672.5" cy="985" r="10" fill="blue"/>
            <text x="672.5" y="985" fill="white" font-size="10" text-anchor="middle" dominant-baseline="central">3</text>
            <title>1 glad/lib/models/container.js
2 glad/lib/models/layer.js
3 glad/lib/render/renderBase.js
⬇
rectangle.js</title>
          </g>
        </g>
      </g>
      <g id='Counters_util'>
        <g id='Counters_svg.js'>
          <g>
            <circle cx="782.5" cy="1175" r="10" fill="green"/>
            <text x="782.5" y="1175" fill="white" font-size="10" text-anchor="middle" dominant-baseline="central">1</text>
            <title>svg.js
⬇
1 glad/lib/util/strings.js</title>
          </g>
          <g>
            <circle cx="522.5" cy="1135" r="10" fill="blue"/>
            <text x="522.5" y="1135" fill="white" font-size="10" text-anchor="middle" dominant-baseline="central">1</text>
            <title>1 glad/lib/render/renderBase.js
⬇
svg.js</title>
          </g>
        </g>
        <g id='Counters_strings.js'>
          <g>
            <circle cx="522.5" cy="1215" r="10" fill="blue"/>
            <text x="522.5" y="1215" fill="white" font-size="10" text-anchor="middle" dominant-baseline="central">4</text>
            <title>1 glad/lib/glad.js
2 glad/lib/models/graph.js
3 glad/lib/render/renderBase.js
4 glad/lib/util/svg.js
⬇
strings.js</title>
          </g>
        </g>
      </g>
    </g>
    <g id='Counters_test'>
      <g id='Counters_test.js'>
        <g>
          <circle cx="615" cy="130" r="10" fill="green"/>
          <text x="615" y="130" fill="white" font-size="10" text-anchor="middle" dominant-baseline="central">10</text>
          <title>test.js
⬇
1 glad/lib/glad.js
2 glad/lib/models/constants.js
3 glad/lib/models/container.js
4 glad/lib/models/graph.js
5 glad/lib/render/renderAsGrid.js
6 glad/lib/render/renderAsLayers.js
7 glad/lib/render/renderAsPoster.js
8 glad/test/test_js.js
9 glad/test/test_swift.js
10 glad/test/test_ts.js</title>
        </g>
      </g>
      <g id='Counters_test_js.js'>
        <g>
          <circle cx="315" cy="210" r="10" fill="green"/>
          <text x="315" y="210" fill="white" font-size="10" text-anchor="middle" dominant-baseline="central">2</text>
          <title>test_js.js
⬇
1 glad/lib/glad.js
2 glad/lib/models/constants.js</title>
        </g>
        <g>
          <circle cx="55" cy="170" r="10" fill="blue"/>
          <text x="55" y="170" fill="white" font-size="10" text-anchor="middle" dominant-baseline="central">1</text>
          <title>1 glad/test/test.js
⬇
test_js.js</title>
        </g>
      </g>
      <g id='Counters_test_swift.js'>
        <g>
          <circle cx="615" cy="210" r="10" fill="green"/>
          <text x="615" y="210" fill="white" font-size="10" text-anchor="middle" dominant-baseline="central">2</text>
          <title>test_swift.js
⬇
1 glad/lib/glad.js
2 glad/lib/models/constants.js</title>
        </g>
        <g>
          <circle cx="355" cy="170" r="10" fill="blue"/>
          <text x="355" y="170" fill="white" font-size="10" text-anchor="middle" dominant-baseline="central">1</text>
          <title>1 glad/test/test.js
⬇
test_swift.js</title>
        </g>
      </g>
      <g id='Counters_test_ts.js'>
        <g>
          <circle cx="915" cy="210" r="10" fill="green"/>
          <text x="915" y="210" fill="white" font-size="10" text-anchor="middle" dominant-baseline="central">2</text>
          <title>test_ts.js
⬇
1 glad/lib/glad.js
2 glad/lib/models/constants.js</title>
        </g>
        <g>
          <circle cx="655" cy="170" r="10" fill="blue"/>
          <text x="655" y="170" fill="white" font-size="10" text-anchor="middle" dominant-baseline="central">1</text>
          <title>1 glad/test/test.js
⬇
test_ts.js</title>
        </g>
      </g>
    </g>
    <g id='Counters_cli'>
      <g id='Counters_index.js'>
        <g>
          <circle cx="1250" cy="130" r="10" fill="green"/>
          <text x="1250" y="130" fill="white" font-size="10" text-anchor="middle" dominant-baseline="central">2</text>
          <title>index.js
⬇
1 glad/lib/glad.js
2 glad/lib/models/constants.js</title>
        </g>
      </g>
    </g>
  </g>
  <g id='Labels_glad'>
    <text class="folderName" x="10" y="10">glad</text>
    <text x="10" y="1370" fill='black' font-size="75%">6 folders, 21 files</text>
    <g id='Labels_lib'>
      <text class="folderName" x="177.5" y="275">lib</text>
      <text x="177.5" y="1335" fill='black' font-size="75%">3 folders, 16 files, 15 incoming, path: .../glad/</text>
      <g id='Labels_glad.js'>
        <text class="nodeName" x="652.5" y="340" font-size="120%">glad.js</text>
      </g>
      <g id='Labels_render'>
        <text class="folderName" x="195" y="390">render</text>
        <text x="195" y="600" fill='black' font-size="75%">4 files, 7 incoming, 21 outgoing, path: .../glad/lib/</text>
        <g id='Labels_renderAsLayers.js'>
          <text class="nodeName" x="352.5" y="455" font-size="120%">renderAsLayers.js</text>
        </g>
        <g id='Labels_renderAsPoster.js'>
          <text class="nodeName" x="652.5" y="455" font-size="120%">renderAsPoster.js</text>
        </g>
        <g id='Labels_renderAsGrid.js'>
          <text class="nodeName" x="952.5" y="455" font-size="120%">renderAsGrid.js</text>
        </g>
        <g id='Labels_renderBase.js'>
          <text class="nodeName" x="652.5" y="535" font-size="120%">renderBase.js</text>
        </g>
      </g>
      <g id='Labels_models'>
        <text class="folderName" x="345" y="620">models</text>
        <text x="345" y="1070" fill='black' font-size="75%">9 files, 30 incoming, 1 outgoing, path: .../glad/lib/</text>
        <g id='Labels_graph.js'>
          <text class="nodeName" x="502.5" y="685" font-size="120%">graph.js</text>
        </g>
        <g id='Labels_layers.js'>
          <text class="nodeName" x="802.5" y="685" font-size="120%">layers.js</text>
        </g>
        <g id='Labels_layer.js'>
          <text class="nodeName" x="502.5" y="765" font-size="120%">layer.js</text>
        </g>
        <g id='Labels_edges.js'>
          <text class="nodeName" x="802.5" y="765" font-size="120%">edges.js</text>
        </g>
        <g id='Labels_edge.js'>
          <text class="nodeName" x="502.5" y="845" font-size="120%">edge.js</text>
        </g>
        <g id='Labels_containers.js'>
          <text class="nodeName" x="802.5" y="845" font-size="120%">containers.js</text>
        </g>
        <g id='Labels_container.js'>
          <text class="nodeName" x="652.5" y="925" font-size="120%">container.js</text>
        </g>
        <g id='Labels_constants.js'>
          <text class="nodeName" x="502.5" y="1005" font-size="120%">constants.js</text>
        </g>
        <g id='Labels_rectangle.js'>
          <text class="nodeName" x="802.5" y="1005" font-size="120%">rectangle.js</text>
        </g>
      </g>
      <g id='Labels_util'>
        <text class="folderName" x="495" y="1090">util</text>
        <text x="495" y="1300" fill='black' font-size="75%">2 files, 4 incoming, path: .../glad/lib/</text>
        <g id='Labels_svg.js'>
          <text class="nodeName" x="652.5" y="1155" font-size="120%">svg.js</text>
        </g>
        <g id='Labels_strings.js'>
          <text class="nodeName" x="652.5" y="1235" font-size="120%">strings.js</text>
        </g>
      </g>
    </g>
    <g id='Labels_test'>
      <text class="folderName" x="27.5" y="45">test</text>
      <text x="27.5" y="255" fill='black' font-size="75%">4 files, 13 outgoing, path: .../glad/</text>
      <g id='Labels_test.js'>
        <text class="nodeName" x="485" y="110" font-size="120%">test.js</text>
      </g>
      <g id='Labels_test_js.js'>
        <text class="nodeName" x="185" y="190" font-size="120%">test_js.js</text>
      </g>
      <g id='Labels_test_swift.js'>
        <text class="nodeName" x="485" y="190" font-size="120%">test_swift.js</text>
      </g>
      <g id='Labels_test_ts.js'>
        <text class="nodeName" x="785" y="190" font-size="120%">test_ts.js</text>
      </g>
    </g>
    <g id='Labels_cli'>
      <text class="folderName" x="962.5" y="45">cli</text>
      <text x="962.5" y="175" fill='black' font-size="75%">1 file, 2 outgoing, path: .../glad/</text>
      <g id='Labels_index.js'>
        <text class="nodeName" x="1120" y="110" font-size="120%">index.js</text>
      </g>
    </g>
  </g>
  <g id='Layers_Text'>
    <g id='Layer:0 of glad'>
      <text x="1277.5" y="45" class='layerText' dominant-baseline="hanging" text-anchor="end" >1 </text>
    </g>
    <g id='Layer:0 of test'>
      <text x="925" y="80" class='layerText' dominant-baseline="hanging" text-anchor="end" >1 </text>
    </g>
    <g id='Layer:1 of test'>
      <text x="925" y="160" class='layerText' dominant-baseline="hanging" text-anchor="end" >2 </text>
    </g>
    <g id='Layer:0 of cli'>
      <text x="1260" y="80" class='layerText' dominant-baseline="hanging" text-anchor="end" >1 </text>
    </g>
    <g id='Layer:1 of glad'>
      <text x="1277.5" y="275" class='layerText' dominant-baseline="hanging" text-anchor="end" >2 </text>
    </g>
    <g id='Layer:0 of lib'>
      <text x="1110" y="310" class='layerText' dominant-baseline="hanging" text-anchor="end" >1 </text>
    </g>
    <g id='Layer:1 of lib'>
      <text x="1110" y="390" class='layerText' dominant-baseline="hanging" text-anchor="end" >2 </text>
    </g>
    <g id='Layer:0 of render'>
      <text x="1092.5" y="425" class='layerText' dominant-baseline="hanging" text-anchor="end" >1 </text>
    </g>
    <g id='Layer:1 of render'>
      <text x="1092.5" y="505" class='layerText' dominant-baseline="hanging" text-anchor="end" >2 </text>
    </g>
    <g id='Layer:2 of lib'>
      <text x="1110" y="620" class='layerText' dominant-baseline="hanging" text-anchor="end" >3 </text>
    </g>
    <g id='Layer:0 of models'>
      <text x="942.5" y="655" class='layerText' dominant-baseline="hanging" text-anchor="end" >1 </text>
    </g>
    <g id='Layer:1 of models'>
      <text x="942.5" y="735" class='layerText' dominant-baseline="hanging" text-anchor="end" >2 </text>
    </g>
    <g id='Layer:2 of models'>
      <text x="942.5" y="815" class='layerText' dominant-baseline="hanging" text-anchor="end" >3 </text>
    </g>
    <g id='Layer:3 of models'>
      <text x="942.5" y="895" class='layerText' dominant-baseline="hanging" text-anchor="end" >4 </text>
    </g>
    <g id='Layer:4 of models'>
      <text x="942.5" y="975" class='layerText' dominant-baseline="hanging" text-anchor="end" >5 </text>
    </g>
    <g id='Layer:3 of lib'>
      <text x="1110" y="1090" class='layerText' dominant-baseline="hanging" text-anchor="end" >4 </text>
    </g>
    <g id='Layer:0 of util'>
      <text x="792.5" y="1125" class='layerText' dominant-baseline="hanging" text-anchor="end" >1 </text>
    </g>
    <g id='Layer:1 of util'>
      <text x="792.5" y="1205" class='layerText' dominant-baseline="hanging" text-anchor="end" >2 </text>
    </g>
  </g>
</svg>